<?xml version="1.0" encoding="UTF-8"?>
<svg id="_Слой_2" data-name="Слой 2" xmlns="http://www.w3.org/2000/svg" viewBox="0 0 99.06 113">
  <defs>
    <style>
      .cls-1, .cls-2 {
        fill: #d1a24a;
      }

      .cls-2 {
        fill-rule: evenodd;
      }

      .cls-3 {
        fill: #ba141a;
      }

      .cls-4 {
        fill: #ebc46f;
      }

      .cls-5 {
        fill: #835b21;
      }

      .cls-6 {
        fill: #bb8136;
      }
    </style>
  </defs>
  <g id="_Слой_1-2" data-name="Слой 1">
    <g>
      <path d="M49.53,3.3H3.3v47.16c0,14.01,4.62,27.17,13.36,38.08,8.35,10.42,20,17.88,32.87,21.07,12.87-3.19,24.52-10.66,32.87-21.07,8.74-10.9,13.36-24.07,13.36-38.08V3.3h-46.23Z"/>
      <path class="cls-1" d="M3.55,50.46c0,13.95,4.6,27.06,13.3,37.92,8.29,10.34,19.89,17.79,32.68,20.97,12.79-3.19,24.39-10.63,32.68-20.97,8.7-10.86,13.3-23.97,13.3-37.92V3.55H3.55v46.91ZM49.47,112.73c-13.78-3.26-26.28-11.17-35.19-22.29C5.1,78.99.25,65.16.25,50.46V.25h98.56v50.21c0,14.71-4.85,28.53-14.03,39.98-8.91,11.12-21.41,19.03-35.19,22.29h-.05s-.06,0-.06,0Z"/>
      <path class="cls-5" d="M3.79,3.79h91.48v46.66c0,13.89-4.58,26.95-13.25,37.77-8.24,10.28-19.77,17.69-32.49,20.88-12.71-3.18-24.25-10.59-32.49-20.88-8.67-10.81-13.25-23.88-13.25-37.77V3.79h0ZM99.06,0H0v50.46c0,7.43,1.26,14.71,3.74,21.64,2.4,6.7,5.88,12.92,10.34,18.5,8.95,11.16,21.49,19.11,35.33,22.38l.11.02.11-.02c13.84-3.27,26.39-11.21,35.33-22.38,4.47-5.57,7.95-11.8,10.34-18.5,2.48-6.93,3.74-14.21,3.74-21.64V0h0ZM49.53,109.6c12.87-3.19,24.52-10.66,32.87-21.07,8.74-10.9,13.36-24.07,13.36-38.08V3.3H3.3v47.16c0,14.01,4.62,27.17,13.36,38.08,8.35,10.42,20,17.88,32.87,21.07ZM98.56.49v49.96c0,30.14-20.92,55.39-49.03,62.04C21.42,105.85.5,80.6.5,50.46V.49h98.06Z"/>
      <path class="cls-1" d="M71.89,87.35c-.52,0-1.03-.46-1.37-.85-.58-.67-1.13-1.69-1.04-2.33.05-.39,1.1-2.31,2.95-5.69,1.66-3.03,3.93-7.19,3.97-7.73.07-.96-.13-1.97-.31-2.85l-.02-.1c-.03-.16-.07-.31-.09-.47l-.02-.13c-.15-.79-.33-1.7-.19-2.65.22-1.38,1.11-1.59,1.63-1.59.05,0,.11,0,.16,0,.13,0,.28.03.43.07l.43.11c.21.05.41.1.6.14.09.01.17.02.24.03.04,0,.07,0,.11,0,.21,0,.38-.04.69-.53.23-.38.2-.74-.12-1.18-.2-.28-.44-.58-.73-.92-.21-.26-.41-.5-.59-.75-.51-.66-.74-1.29-.74-1.98s.24-1.25.67-1.66c.37-.34.83-.51,1.34-.51.05,0,.11,0,.16,0,.21.01.43.06.67.15.28.1.53.23.77.34.09.05.19.1.28.14.19.09.36.15.47.15h0c.09,0,.15-.01.25-.09.14-.12.22-.23.1-.78-.13-.57-.48-1.05-.86-1.56l-.17-.23c-.44-.58-.86-1.17-1.02-1.94-.18-.92.09-1.47.35-1.78.24-.29.71-.63,1.55-.63h.24c.21.02.41.06.61.1l.11.02c.14.02.24.04.33.04.04,0,.08,0,.12,0,.15,0,.24,0,.55-.52l.1-.18c.09-.17.2-.36.35-.54.43-.56,1.06-.89,1.72-.89.05,0,.1,0,.15,0,.75.05,1.4.52,1.74,1.26.25.53.42,1.14.48,1.81.04.48.28.76.85.97.03,0,.09.03.14.05.04.01.08.03.12.04l.46.17c.81.33,1.26.73,1.43,1.28.17.54.04,1.13-.41,1.85-.3.46-.65.82-.98,1.18l-.17.18c-.48.5-.82.94-.87,1.49-.05.42.05.55.43.61.1.02.23.03.39.04l.45.03c.18.01.33.02.47.04.79.13,1.12.56,1.26.8.17.31.3.83,0,1.52-.22.51-.59.96-1.13,1.36l-.14.1c-.93.7-2.11,1.57-3.32,2.27-.5.28-1,.62-1.29,1.17-.16.27-.12.4.02.57.15.19.3.36.46.53.13.14.27.3.4.45.41.49.59.95.54,1.42-.07.62-.52,1.02-.85,1.28-.72.54-1.51.85-2.25,1.11-.54.19-1.09.34-1.61.47-.94.25-2.11.56-3.15,1.14l-1.9,1.05c-.05.06-.1.13-.15.19-.13.16-.32.35-.56.59-1.39,1.39-4.29,4.28-5,11.02.02.69-.04,1.58-.51,1.69-.04.01-.1.02-.17.02Z"/>
      <path class="cls-5" d="M86.57,47.34c-.73,0-1.43.36-1.92.99-.15.19-.27.39-.37.58-.02.03-.03.06-.05.09-.01.02-.02.05-.04.07-.2.34-.28.4-.29.4,0,0-.01,0-.05,0s-.07,0-.11,0c-.08,0-.17-.02-.27-.04h-.03s-.1-.02-.1-.02c-.2-.04-.42-.08-.64-.09h-.06s-.06,0-.06,0c-.06,0-.1,0-.13,0-.94,0-1.47.39-1.74.72-.29.34-.6.96-.4,1.98.17.84.62,1.47,1.07,2.06l.11.15.05.07c.38.51.7.95.82,1.47.1.43.05.47-.02.53-.04.03-.05.03-.06.03-.08,0-.22-.04-.39-.12h-.01s-.01,0-.01,0c-.08-.03-.17-.08-.26-.12-.26-.13-.52-.25-.8-.36-.27-.09-.51-.15-.75-.16-.06,0-.12,0-.18,0-.58,0-1.1.2-1.51.58-.49.46-.76,1.11-.76,1.84,0,.74.25,1.41.8,2.13.19.25.39.5.58.73v.02c.3.34.53.64.73.91.3.42.27.65.11.9-.26.41-.35.41-.48.41-.03,0-.06,0-.09,0-.06,0-.13,0-.21-.02-.2-.03-.39-.08-.6-.14h-.06s-.36-.11-.36-.11c-.18-.04-.34-.06-.48-.07-.06,0-.12,0-.18,0-1.01,0-1.69.66-1.87,1.8-.15,1,.03,1.92.19,2.74l.02.12c.02.16.06.32.09.47l.02.1c.17.86.38,1.84.31,2.77-.09.59-2.41,4.83-3.94,7.64-2.11,3.86-2.92,5.36-2.97,5.77-.1.76.49,1.84,1.1,2.53.37.43.94.94,1.56.94.08,0,.16,0,.24-.02.19-.04.76-.18.7-1.94.71-6.63,3.55-9.47,4.93-10.83.25-.24.44-.44.57-.61.04-.05.08-.1.12-.15l.34-.19,1.52-.84c.94-.52,1.92-.81,3.09-1.12.52-.14,1.08-.29,1.62-.48.77-.26,1.58-.58,2.33-1.15.21-.16.86-.65.94-1.44.05-.54-.14-1.07-.59-1.61-.14-.16-.28-.32-.42-.47-.15-.17-.3-.34-.44-.51-.08-.1-.1-.12,0-.28.27-.5.74-.82,1.2-1.08,1.23-.71,2.41-1.59,3.35-2.29l.13-.09c.58-.43.98-.91,1.22-1.46.34-.78.18-1.37,0-1.73-.15-.29-.54-.79-1.43-.93-.15-.02-.31-.03-.49-.05h-.11s-.12-.02-.12-.02h-.11s-.11-.02-.11-.02c-.15,0-.27-.02-.36-.03-.24-.04-.27-.04-.24-.34.05-.48.35-.87.8-1.34l.08-.08.08-.09c.36-.37.71-.75,1.02-1.22.5-.8.64-1.45.44-2.07-.2-.62-.7-1.07-1.57-1.43l-.31-.11-.16-.06h-.01s-.01,0-.01,0c-.04,0-.07-.02-.11-.04-.05-.02-.1-.04-.15-.05-.52-.2-.64-.43-.68-.76-.07-.7-.24-1.34-.5-1.9-.38-.81-1.11-1.33-1.95-1.4-.03,0-.08,0-.14,0ZM85.52,58.49c-.1.35-.21.69-.33,1.05-.04.13-.08.26-.13.39.18-.48.35-.96.46-1.43ZM85.85,57.38c.2-.46.46-.87.75-1.23l-.49.36.29-1.17c.11-.51.21-1.01.27-1.5-.21,1.14-.47,2.31-.82,3.54ZM86.57,47.83s.09,0,.13,0c.66.05,1.24.46,1.54,1.12.24.5.4,1.09.45,1.73.05.59.36.93,1,1.18.1.03.18.07.28.1.15.05.3.11.45.17.73.3,1.13.65,1.28,1.12.15.47.02.99-.39,1.65-.29.44-.63.8-.97,1.15-.05.05-.11.11-.15.16-.51.53-.87,1.02-.94,1.63-.06.55.13.81.64.88.11.02.24.03.41.04.08,0,.14,0,.22.01.07,0,.15,0,.23.01.18.01.32.02.45.04.63.1.94.42,1.08.68.13.25.26.69,0,1.3-.2.46-.54.87-1.05,1.26l-.14.1c-1.05.78-2.14,1.59-3.3,2.26-.53.3-1.06.67-1.38,1.27-.19.33-.17.57.05.84.15.19.31.37.47.54.13.14.27.3.4.45.38.44.52.85.48,1.24-.06.52-.46.88-.76,1.1-.7.53-1.5.84-2.18,1.07-.53.18-1.07.33-1.59.47-1.07.29-2.17.59-3.21,1.17l-1.52.84.92-1.46c.12-.19.24-.37.35-.54.24-.38.45-.7.64-1.03.23-.4.54-.67,1-.84.09-.04.19-.07.28-.11l-.8.22.46-.89c.95-1.81,1.77-3.64,2.51-5.59.15-.41.47-.56.68-.67.33-.15.65-.31.97-.46-.15.05-.31.11-.45.18l-.45.19-.13-.47c-.03-.13-.05-.26-.03-.37-1.52,4.2-3.4,7.87-5.69,11.18-.27.39-.57.78-.86,1.14-.82,1.02-4.77,3.74-5.61,11.73,0,0,.05,1.39-.32,1.48-.04,0-.08.01-.12.01-.91,0-2.29-2.03-2.16-2.91.11-.81,6.84-12.35,6.92-13.44.07-.96-.11-1.92-.32-2.91-.04-.19-.08-.37-.11-.56l-.02-.13c-.16-.83-.32-1.68-.18-2.57.17-1.12.82-1.38,1.38-1.38.05,0,.1,0,.14,0,.12,0,.25.03.39.06.12.03.24.06.36.09.24.06.46.12.69.16.1.02.19.02.26.03.04,0,.09,0,.13,0,.34,0,.58-.13.9-.65.29-.47.25-.93-.13-1.45-.23-.32-.48-.63-.74-.94-.19-.24-.4-.48-.58-.74-.47-.62-.7-1.2-.69-1.83,0-.6.22-1.12.59-1.48.32-.3.73-.45,1.18-.45.05,0,.1,0,.15,0,.2.01.41.06.61.13.26.09.5.21.74.33.09.05.2.1.3.14.16.08.38.16.55.17h.05c.14,0,.25-.05.38-.15.27-.22.31-.47.19-1.02-.15-.65-.54-1.17-.95-1.72l-.12-.16c-.41-.54-.82-1.11-.98-1.85-.16-.82.06-1.29.29-1.57.21-.25.61-.54,1.36-.54h.1s.08,0,.12,0c.2.01.4.05.59.09l.11.02c.13.02.25.04.35.05.05,0,.1,0,.14,0,.29,0,.45-.1.77-.65.04-.06.06-.12.1-.18.09-.17.19-.35.33-.52.4-.5.94-.79,1.52-.79Z"/>
      <path class="cls-5" d="M79.38,72.63c.39-.61.72-1.08,1-1.59.18-.33.43-.52.77-.65,1.29-.49,2.59-.91,3.97-1.06.21-.02.48.03.68-.28-.32-.08-.63-.12-.94-.15-1.2-.09-2.34.18-3.53.5.99-1.88,1.81-3.74,2.54-5.64.08-.24.27-.33.46-.43,1.57-.77,3.16-1.45,4.8-2.04.23-.08.5-.12.72-.46-1.93.23-3.67.73-5.37,1.42-.06-.2.02-.35.08-.5.33-.99.76-1.96.97-2.97.28-1.37,1.13-2.27,2.15-3.06.52-.4,1.07-.78,1.6-1.17.22-.16.49-.24.61-.54-1.31.29-2.39,1.04-3.55,1.88.57-2.34.43-4.56.05-6.89-.34.49-.19.92-.21,1.33-.14,3.27-.88,6.42-1.88,9.51-1.5,4.67-3.53,9.07-6.33,13.11-1,1.46-2.38,2.67-2.8,4.64l4.21-4.96Z"/>
      <path class="cls-5" d="M81.77,51.45c1,1.74,2.67,2.99,2.84,5.2.33-.82.48-1.42.03-2.13-.65-1.03-1.35-2-2.29-2.79-.09-.08-.2-.16-.3-.23-.04-.02-.09-.01-.28-.05Z"/>
      <path class="cls-5" d="M79.23,57.91c1.28,1.72,2.35,3.43,2.89,5.4.51-.67.57-1.16.23-1.82-.59-1.17-1.33-2.23-2.32-3.1-.18-.17-.36-.37-.8-.47Z"/>
      <path class="cls-5" d="M77.04,65.35c.55,1.76,1.24,3.43,1.18,5.4.56-.81.96-1.45.58-2.36-.34-.83-.65-1.67-1.1-2.44-.13-.23-.24-.5-.66-.6Z"/>
      <path class="cls-1" d="M26.83,87.35c-.06,0-.12,0-.18-.02-.47-.11-.53-1-.51-1.72-.71-6.71-3.61-9.59-5-10.98-.24-.24-.43-.43-.56-.59-.05-.06-.1-.12-.15-.19l-1.9-1.05c-1.04-.58-2.21-.89-3.15-1.14-.51-.14-1.06-.29-1.61-.47-.75-.26-1.54-.57-2.25-1.11-.33-.25-.78-.65-.85-1.27-.05-.47.13-.94.54-1.42.14-.16.27-.32.41-.46.16-.17.31-.35.45-.53.14-.17.18-.3.02-.56-.3-.55-.8-.89-1.29-1.18-1.22-.71-2.39-1.58-3.33-2.28l-.13-.1c-.54-.41-.91-.85-1.14-1.36-.3-.69-.17-1.21,0-1.52.13-.25.47-.68,1.26-.8.14-.02.29-.03.47-.04l.45-.03c.15,0,.28-.02.38-.04.39-.06.48-.2.44-.61-.06-.54-.39-.99-.87-1.49l-.16-.17c-.35-.37-.7-.73-.99-1.19-.46-.73-.59-1.31-.42-1.86s.63-.95,1.43-1.28l.46-.17c.06-.02.1-.03.14-.05.05-.02.1-.04.15-.05.55-.21.79-.48.83-.96.06-.67.23-1.28.48-1.81.34-.73.99-1.2,1.74-1.26.05,0,.1,0,.15,0,.66,0,1.28.33,1.72.89.14.18.25.37.35.55l.09.17c.31.52.41.52.55.52.04,0,.08,0,.12,0,.08,0,.19-.02.3-.04l.13-.02c.2-.04.41-.07.61-.09h.12s.11,0,.11,0c.85,0,1.31.35,1.55.63.26.3.52.85.35,1.77-.16.78-.58,1.37-1.02,1.95l-.17.23c-.38.51-.73.99-.86,1.56-.12.54-.04.66.1.78.09.07.15.09.22.09.15,0,.32-.06.49-.15.1-.04.2-.09.29-.14.24-.12.49-.24.77-.35.24-.08.47-.13.68-.15.05,0,.11,0,.16,0,.51,0,.98.18,1.34.51.43.41.67,1,.67,1.66s-.23,1.31-.74,1.98c-.18.25-.38.49-.57.72-.31.37-.54.68-.75.95-.32.44-.36.8-.12,1.18.31.49.48.53.69.53.03,0,.07,0,.11,0,.07,0,.15,0,.24-.02.2-.03.4-.08.61-.14l.43-.11c.16-.04.31-.06.43-.07.05,0,.11,0,.16,0,.51,0,1.41.21,1.63,1.59.14.95-.03,1.86-.19,2.66l-.02.13c-.02.15-.06.31-.09.46l-.02.1c-.18.88-.38,1.88-.31,2.84.04.55,2.31,4.7,3.97,7.73,1.84,3.37,2.89,5.3,2.95,5.69.09.65-.45,1.67-1.04,2.33-.33.38-.84.84-1.36.84Z"/>
      <path class="cls-5" d="M12.14,47.34c-.05,0-.11,0-.17,0-.84.06-1.57.58-1.95,1.4-.26.56-.43,1.2-.5,1.89-.03.34-.15.55-.68.76-.05.01-.1.03-.15.05-.03.01-.07.02-.11.04h-.01s-.01,0-.01,0l-.16.06-.29.11c-.89.36-1.38.82-1.59,1.43-.2.62-.06,1.28.44,2.06.31.48.67.85,1.01,1.22l.09.1.07.08c.46.48.76.87.81,1.35.03.3,0,.31-.23.35-.09.01-.21.02-.37.03h-.08s-.13.01-.13.01h-.12s-.11.02-.11.02c-.18.01-.34.02-.49.05-.89.14-1.28.64-1.43.93-.19.36-.35.95,0,1.73.24.55.64,1.03,1.21,1.46l.15.1c.94.7,2.12,1.58,3.34,2.28.46.27.93.58,1.2,1.07.1.18.09.19,0,.29-.15.18-.29.35-.45.52-.13.14-.27.3-.41.46-.46.55-.65,1.07-.6,1.61.09.8.74,1.28.95,1.45.74.56,1.56.88,2.32,1.15.55.19,1.1.34,1.62.48,1.18.32,2.15.6,3.09,1.12l1.52.84.34.19s.08.1.12.15c.14.17.33.37.57.61,1.37,1.36,4.22,4.21,4.93,10.83-.05,1.76.51,1.9.7,1.94.08.02.16.02.24.02.61,0,1.19-.51,1.56-.94.6-.69,1.2-1.78,1.1-2.53-.06-.42-.86-1.91-2.97-5.77-1.53-2.8-3.85-7.04-3.94-7.64-.07-.92.13-1.9.31-2.77l.02-.1c.03-.16.07-.32.09-.48l.02-.13c.16-.81.34-1.73.19-2.73-.18-1.15-.86-1.8-1.87-1.8-.06,0-.12,0-.18,0-.14,0-.3.03-.46.07l-.37.09h-.06c-.21.07-.41.12-.59.15-.08.01-.15.02-.22.02-.03,0-.06,0-.09,0-.12,0-.22,0-.48-.42-.15-.25-.18-.49.12-.9.2-.27.43-.57.72-.91v-.02c.21-.24.41-.48.6-.74.54-.71.79-1.38.79-2.13s-.27-1.38-.75-1.83c-.42-.38-.94-.58-1.52-.58-.06,0-.12,0-.18,0-.23.01-.47.07-.73.16-.29.11-.55.24-.8.36-.09.05-.19.09-.27.13h-.01s-.01,0-.01,0c-.16.08-.3.12-.37.12h0s-.03,0-.08-.04c-.06-.05-.11-.09,0-.52.12-.52.44-.96.82-1.47l.05-.07.12-.16c.44-.57.89-1.21,1.06-2.04.2-1.02-.11-1.65-.4-1.99-.27-.33-.8-.72-1.74-.72h-.2s-.06,0-.06,0c-.22.01-.44.05-.64.09l-.1.02h-.03c-.1.02-.19.03-.27.04-.04,0-.07,0-.11,0-.04,0-.05,0-.05,0,0,0-.09-.06-.29-.4-.01-.03-.03-.05-.04-.08-.01-.03-.03-.06-.05-.09-.1-.19-.21-.39-.37-.58-.46-.62-1.16-.98-1.9-.98ZM13.66,59.93c-.04-.13-.08-.26-.13-.39-.12-.36-.23-.7-.33-1.05.11.47.28.95.46,1.43ZM12.61,56.52l-.49-.36c.29.36.55.77.75,1.23-.35-1.23-.61-2.4-.81-3.53.06.49.15.99.27,1.5l.28,1.17ZM12.14,47.83c.58,0,1.13.28,1.53.8.13.17.24.35.33.52.04.06.06.12.1.18.32.54.48.65.77.65.04,0,.09,0,.14,0,.1,0,.22-.02.35-.05l.11-.02c.2-.03.39-.07.59-.09.04,0,.08,0,.12,0h.1c.75,0,1.16.3,1.36.54.23.27.45.75.29,1.57-.15.74-.56,1.31-.98,1.85l-.12.16c-.41.56-.8,1.07-.95,1.72-.12.55-.08.8.19,1.02.12.1.24.15.38.15h.05c.18-.01.39-.09.55-.17.09-.04.2-.09.3-.14.23-.12.48-.23.74-.33.2-.07.41-.12.61-.13.05,0,.1,0,.15,0,.44,0,.86.15,1.18.45.38.36.59.88.59,1.48,0,.63-.22,1.21-.69,1.83-.19.26-.4.5-.58.74-.25.31-.5.62-.74.94-.38.52-.43.98-.13,1.45.32.52.56.65.9.65.04,0,.08,0,.13,0,.08,0,.16,0,.26-.03.23-.04.45-.1.69-.16.12-.03.24-.06.36-.09.14-.03.27-.05.39-.06.05,0,.09,0,.14,0,.56,0,1.21.26,1.38,1.38.13.89-.02,1.74-.18,2.57l-.02.13c-.03.19-.07.37-.11.56-.2,1-.39,1.95-.32,2.91.08,1.09,6.81,12.62,6.92,13.44.12.87-1.26,2.91-2.16,2.91-.04,0-.08,0-.12-.01-.37-.08-.32-1.48-.32-1.48-.84-7.99-4.79-10.71-5.61-11.73-.29-.37-.6-.75-.86-1.14-2.3-3.32-4.17-6.98-5.69-11.18.02.11,0,.23-.03.37l-.13.47-.45-.19c-.15-.06-.31-.12-.45-.18.32.15.64.31.97.46.21.1.53.26.68.67.74,1.95,1.56,3.78,2.51,5.59l.46.89-.8-.22c.09.04.19.07.28.11.45.18.77.44,1,.84.19.34.4.65.64,1.03.11.17.22.35.35.54l.92,1.46-1.52-.84c-1.03-.57-2.14-.88-3.21-1.17-.52-.14-1.06-.29-1.59-.47-.69-.24-1.48-.54-2.18-1.07-.29-.22-.69-.58-.76-1.1-.04-.4.11-.79.48-1.24.13-.15.26-.31.4-.45.16-.18.32-.36.47-.54.22-.27.24-.51.05-.84-.32-.59-.86-.96-1.38-1.27-1.17-.68-2.25-1.48-3.3-2.26l-.14-.1c-.51-.38-.86-.8-1.05-1.26-.27-.61-.14-1.05,0-1.3.13-.25.44-.57,1.08-.68.13-.02.27-.03.45-.04.08,0,.15,0,.23-.01s.14,0,.22-.01c.16,0,.3-.02.41-.04.51-.08.7-.34.64-.88-.07-.61-.43-1.09-.94-1.63-.05-.05-.11-.11-.15-.16-.34-.35-.68-.71-.97-1.15-.41-.65-.54-1.17-.39-1.65.15-.47.56-.83,1.28-1.12.15-.05.3-.11.45-.17.1-.03.18-.07.28-.1.64-.25.95-.59,1-1.18.06-.64.22-1.23.45-1.73.31-.65.88-1.07,1.54-1.12.04-.01.08-.01.12-.01Z"/>
      <path class="cls-5" d="M23.52,77.58c-.42-1.97-1.8-3.18-2.8-4.64-2.8-4.04-4.83-8.45-6.33-13.11-1-3.09-1.74-6.25-1.88-9.51-.02-.41.12-.84-.21-1.33-.37,2.33-.51,4.55.05,6.89-1.16-.84-2.23-1.59-3.55-1.88.12.3.39.38.61.54.52.39,1.07.77,1.6,1.17,1.03.8,1.88,1.69,2.15,3.06.21,1.01.64,1.98.97,2.97.05.15.14.3.08.5-1.7-.69-3.44-1.19-5.37-1.42.21.35.49.38.72.46,1.64.58,3.24,1.27,4.8,2.04.19.09.38.19.46.43.73,1.9,1.55,3.76,2.54,5.64-1.19-.32-2.34-.59-3.53-.5-.31.02-.62.07-.94.15.2.32.47.26.68.28,1.38.15,2.68.57,3.97,1.06.34.13.59.32.77.65.28.51.61.98,1,1.59l4.21,4.96Z"/>
      <path class="cls-5" d="M16.95,51.45c-.18.03-.24.03-.28.05-.1.07-.21.15-.3.23-.93.8-1.64,1.76-2.29,2.79-.44.71-.29,1.31.03,2.13.17-2.21,1.84-3.46,2.84-5.2Z"/>
      <path class="cls-5" d="M19.49,57.9c-.44.1-.62.3-.81.47-.98.88-1.73,1.94-2.32,3.1-.34.66-.28,1.16.23,1.82.54-1.97,1.62-3.67,2.89-5.4Z"/>
      <path class="cls-5" d="M21.67,65.35c-.43.1-.53.37-.66.6-.45.77-.76,1.61-1.1,2.44-.38.91.02,1.55.58,2.36-.06-1.97.62-3.64,1.18-5.4Z"/>
      <path class="cls-1" d="M24.24,78.23c-.23-.4-.44-1.24.18-1.79-.48-.42-1.23-.51-1.23-.51l-.55-.06.89-.78c-.99-.26-1.72-1.16-1.72-2.22,0-1.27,1.03-2.29,2.29-2.29s2.07.7,2.37,2.03c2.6-2.43,6.49-5.95,6.53-5.99l.08-.08h.11c1.68.23,4.21.56,4.32.57h.09s.07.08.07.08c.1.11.11.13-.27,3.66v.12s-.12.06-.12.06c-.36.22-8.76,5.28-9.2,5.53-.37.21-.49.58-.63.97-.09.29-.19.56-.38.76l-.14.15-.17-.12c-.32-.22-.67-.33-1.05-.33-.64,0-1.14.33-1.15.33l-.22.14-.12-.23Z"/>
      <path class="cls-5" d="M33.02,66.26l-.17.15s-3.65,3.3-6.24,5.72c-.4-1.18-1.27-1.82-2.5-1.82-1.4,0-2.54,1.14-2.54,2.54,0,1.03.61,1.91,1.49,2.31l-.15.13-.85.74,1.12.12c.17.02.56.11.89.31-.45.61-.3,1.4-.03,1.88l.26.46.44-.3s.44-.29,1.01-.29c.33,0,.63.09.91.29l.35.24.29-.31c.23-.24.33-.55.43-.85.14-.42.25-.68.51-.84.44-.25,8.84-5.32,9.2-5.53l.21-.13.02-.24q.4-3.64.2-3.85l-.15-.16h-.2c-.26-.03-2.68-.35-4.29-.56l-.22-.03ZM33.18,66.77s4.28.56,4.33.56-.33,3.46-.33,3.46c0,0-8.75,5.28-9.19,5.53-.75.42-.67,1.36-1.07,1.78-.41-.28-.82-.37-1.19-.37-.73,0-1.28.37-1.28.37,0,0-.61-1.08.34-1.64-.53-.68-1.58-.8-1.58-.8l.88-.77c-1.13,0-2.05-.92-2.05-2.05s.92-2.05,2.05-2.05c.45,0,1.92.04,2.21,2.27,2.61-2.46,6.86-6.3,6.86-6.3Z"/>
      <path class="cls-5" d="M24.84,73.35c0,1.36-1.29.38-1.42,2-.8-.64-.84-1.42-.8-2,.04-.61.49-1.11,1.11-1.11s1.11.49,1.11,1.11Z"/>
      <path class="cls-4" d="M23.64,72.88c0,.3-.54.48-.33,2.19-.78-1.15-.47-2.01-.31-2.31.18-.34.64-.21.64.12Z"/>
      <path class="cls-4" d="M26.14,73.69l4.9-4.36s1.53.58,3.42.3c.58-.08-8.94,6.75-8.94,6.75,0,0,.54-1.31-.32-1.71.82-.43.93-.98.93-.98Z"/>
      <path class="cls-1" d="M22.96,84.31c-.43,0-.85-.14-1.18-.41-.4-.32-.65-.77-.71-1.27-.06-.5.08-1,.4-1.4l1.75-2.2c.36-.45.9-.72,1.49-.72.43,0,.85.14,1.18.41.82.65.96,1.85.31,2.67l-1.75,2.2c-.36.45-.9.71-1.49.71Z"/>
      <path class="cls-5" d="M24.72,78.05c-.66,0-1.28.3-1.69.81l-1.75,2.2c-.36.45-.51,1.01-.45,1.58s.35,1.08.8,1.44c.38.3.85.46,1.33.46.66,0,1.28-.3,1.69-.81l1.75-2.2c.74-.93.58-2.28-.35-3.02-.37-.3-.85-.46-1.33-.46ZM24.72,78.54c.36,0,.72.12,1.03.36.71.56.84,1.61.27,2.33l-1.75,2.2c-.33.41-.81.62-1.3.62-.36,0-.72-.12-1.03-.36-.71-.56-.84-1.61-.27-2.33l1.75-2.2c.33-.41.81-.62,1.3-.62Z"/>
      <path class="cls-1" d="M19.78,81.46c-.59,0-1.13-.26-1.49-.72-.32-.4-.45-.89-.4-1.4.06-.5.31-.96.71-1.27l2.21-1.74c.33-.26.75-.41,1.18-.41.59,0,1.13.26,1.49.72.32.4.45.89.4,1.4-.06.5-.31.96-.71,1.27l-2.21,1.74c-.33.27-.75.41-1.18.41Z"/>
      <path class="cls-5" d="M21.98,75.67c-.48,0-.95.16-1.33.46l-2.21,1.74c-.45.36-.73.86-.8,1.44-.06.57.09,1.13.45,1.58.41.52,1.02.82,1.69.82.48,0,.95-.16,1.33-.46l2.21-1.74c.93-.74,1.09-2.09.35-3.02-.42-.52-1.03-.82-1.69-.82ZM21.98,76.16c.49,0,.97.21,1.3.63.56.71.44,1.76-.27,2.32l-2.21,1.74c-.3.24-.66.36-1.02.36-.49,0-.97-.21-1.3-.63-.56-.71-.44-1.76.27-2.32l2.21-1.74c.3-.24.66-.36,1.02-.36Z"/>
      <path class="cls-1" d="M17.72,77.95c-.68,0-1.31-.37-1.65-.95-.25-.44-.32-.95-.19-1.44.13-.49.44-.9.88-1.16l2.44-1.41c.29-.17.61-.25.95-.25.68,0,1.31.37,1.65.95.52.91.21,2.08-.7,2.6l-2.44,1.41c-.29.16-.62.25-.95.25Z"/>
      <path class="cls-5" d="M20.15,72.49c-.38,0-.75.1-1.07.29l-2.44,1.41c-1.03.59-1.38,1.91-.79,2.94.38.66,1.1,1.07,1.87,1.07.38,0,.75-.1,1.07-.29l2.44-1.41c.49-.29.85-.75,1-1.3s.07-1.14-.21-1.63c-.39-.66-1.1-1.07-1.87-1.07ZM20.15,72.98c.57,0,1.13.3,1.44.83.45.79.18,1.8-.61,2.26l-2.44,1.41c-.26.15-.54.22-.83.22-.57,0-1.13-.3-1.44-.83-.45-.79-.18-1.8.61-2.26l2.44-1.41c.26-.15.54-.22.83-.22Z"/>
      <path class="cls-5" d="M20.21,75.53c1.36.08.45-1.27,2.08-1.3-.59-.84-1.37-.91-1.95-.91-.61,0-1.14.43-1.17,1.04-.03.61.43,1.14,1.04,1.17Z"/>
      <path class="cls-4" d="M19.81,74.3c.3.01.51-.51,2.2-.2-1.1-.85-1.98-.59-2.29-.44-.34.16-.24.62.09.64Z"/>
      <path class="cls-5" d="M22.64,78.5c1.29-.42-.04-1.34,1.46-1.97-.86-.56-1.61-.36-2.14-.14-.57.23-.9.82-.71,1.4.18.58.81.9,1.39.71Z"/>
      <path class="cls-4" d="M21.82,77.5c.29-.09.29-.67,1.98-.99-1.33-.39-2.06.17-2.3.42-.26.28,0,.67.32.57Z"/>
      <path class="cls-5" d="M25.48,80.65c1.2-.65-.29-1.31,1.08-2.2-.94-.4-1.65-.05-2.14.25-.52.33-.74.97-.44,1.5.29.54.96.74,1.5.44Z"/>
      <path class="cls-4" d="M24.49,79.82c.26-.14.17-.71,1.77-1.33-1.38-.13-1.99.54-2.18.84-.21.32.12.66.41.5Z"/>
      <path class="cls-4" d="M23.57,79.54s-.15.98.27,1.33c-.93.9-1.79,2.39-1.79,2.39,0,0-.65-.62-.27-1.48.13-.31,1.79-2.24,1.79-2.24Z"/>
      <path class="cls-4" d="M21.13,76.92s-.38.92-.05,1.36c-1.12.66-2.3,1.9-2.3,1.9,0,0-.49-.76.08-1.51.2-.27,2.27-1.75,2.27-1.75Z"/>
      <path class="cls-4" d="M19.17,73.67s-.46.88-.18,1.35c-1.17.55-2.46,1.69-2.46,1.69,0,0-.42-.8.22-1.49.23-.25,2.42-1.54,2.42-1.54Z"/>
      <path class="cls-4" d="M22.46,72.56c-.02-.08-.02-.18,0-.27.02-.09.05-.18.1-.26.09-.16.22-.31.37-.42.29-.23.66-.37,1.05-.39.39-.02.78.1,1.08.34.3.23.5.55.58.89-.26-.24-.51-.44-.79-.57-.27-.13-.56-.18-.85-.17s-.58.09-.86.22c-.13.07-.27.14-.39.25-.11.09-.22.21-.28.38Z"/>
      <path class="cls-1" d="M74.45,78.32s-.5-.33-1.15-.33c-.38,0-.73.11-1.05.33l-.17.12-.14-.15c-.19-.2-.28-.47-.38-.76-.13-.39-.26-.76-.63-.97-.43-.24-8.84-5.31-9.2-5.53l-.1-.06v-.12c-.4-3.53-.38-3.55-.28-3.66l.07-.08h.11c.09,0,2.62-.34,4.3-.56h.11s.08.06.08.06c.04.03,3.93,3.56,6.53,5.99.31-1.33,1.12-2.03,2.37-2.03s2.3,1.03,2.3,2.29c0,1.07-.73,1.97-1.72,2.22l.89.78-.56.06s-.75.09-1.23.51c.62.56.41,1.39.18,1.79l-.13.23-.22-.14Z"/>
      <path class="cls-5" d="M66.03,66.26l-.23.03c-1.61.21-4.03.53-4.29.56h-.19l-.15.16q-.19.21.2,3.85l.02.24.21.13c.36.22,8.76,5.29,9.2,5.53.27.15.38.42.51.84.1.3.2.61.43.85l.29.31.35-.24c.28-.19.58-.29.91-.29.56,0,1,.28,1.01.29l.44.3.26-.46c.27-.48.42-1.28-.03-1.88.41-.25.88-.31.89-.31l1.12-.12-.85-.74-.15-.13c.87-.4,1.49-1.28,1.49-2.31,0-1.4-1.14-2.54-2.54-2.54-1.24,0-2.1.64-2.5,1.82-2.59-2.41-6.2-5.68-6.24-5.72l-.17-.15ZM65.86,66.77s4.25,3.85,6.86,6.3c.29-2.22,1.75-2.27,2.21-2.27,1.13,0,2.05.92,2.05,2.05s-.92,2.05-2.05,2.05l.88.77s-1.05.12-1.58.8c.95.56.34,1.64.34,1.64,0,0-.55-.37-1.28-.37-.37,0-.78.09-1.19.37-.4-.42-.32-1.36-1.07-1.78-.43-.25-9.19-5.53-9.19-5.53,0,0-.38-3.46-.33-3.46s4.33-.56,4.33-.56Z"/>
      <path class="cls-5" d="M74.19,73.35c0,1.36,1.29.38,1.42,2,.8-.64.84-1.42.8-2-.04-.61-.49-1.11-1.11-1.11s-1.11.49-1.11,1.11Z"/>
      <path class="cls-4" d="M75.4,72.88c0,.3.54.48.33,2.19.78-1.15.47-2.01.31-2.31-.18-.34-.64-.21-.64.12Z"/>
      <path class="cls-4" d="M72.9,73.69l-4.9-4.36s-1.53.58-3.42.3c-.58-.08,8.94,6.75,8.94,6.75,0,0-.54-1.31.32-1.71-.83-.43-.93-.98-.93-.98Z"/>
      <path class="cls-1" d="M76.07,84.31c-.59,0-1.13-.26-1.49-.72l-1.75-2.2c-.65-.82-.51-2.02.31-2.67.33-.26.75-.41,1.18-.41.59,0,1.13.26,1.49.72l1.75,2.2c.32.4.45.89.4,1.4s-.31.96-.71,1.27c-.33.27-.75.42-1.18.42Z"/>
      <path class="cls-5" d="M74.32,78.05c-.48,0-.95.16-1.33.46-.93.74-1.09,2.09-.35,3.02l1.75,2.2c.41.51,1.02.81,1.69.81.48,0,.95-.16,1.33-.46.45-.36.73-.86.8-1.44.06-.57-.09-1.13-.45-1.58l-1.75-2.2c-.4-.51-1.02-.81-1.68-.81ZM74.32,78.55c.49,0,.97.21,1.3.62l1.75,2.2c.56.71.44,1.76-.27,2.33-.3.24-.67.36-1.03.36-.49,0-.97-.21-1.3-.62l-1.75-2.2c-.56-.71-.44-1.76.27-2.33.31-.24.67-.36,1.03-.36Z"/>
      <path class="cls-1" d="M79.26,81.46c-.43,0-.85-.14-1.18-.41l-2.21-1.74c-.4-.32-.65-.77-.71-1.27-.06-.5.08-1,.4-1.4.36-.46.9-.72,1.49-.72.43,0,.85.14,1.18.41l2.21,1.74c.82.65.96,1.85.31,2.67-.36.45-.9.72-1.49.72Z"/>
      <path class="cls-5" d="M77.06,75.67c-.66,0-1.28.3-1.69.82-.36.45-.51,1.01-.45,1.58.06.57.35,1.08.8,1.44l2.21,1.74c.38.3.85.46,1.33.46.66,0,1.28-.3,1.69-.82.36-.45.51-1.01.45-1.58-.06-.57-.35-1.08-.8-1.44l-2.21-1.74c-.37-.3-.85-.46-1.33-.46ZM77.06,76.16c.36,0,.72.11,1.02.36l2.21,1.74c.71.56.84,1.61.27,2.32-.33.41-.81.63-1.3.63-.36,0-.72-.11-1.02-.36l-2.21-1.74c-.71-.56-.84-1.61-.27-2.32.33-.42.81-.63,1.3-.63Z"/>
      <path class="cls-1" d="M81.32,77.95c-.33,0-.66-.09-.95-.25l-2.44-1.41c-.44-.25-.75-.66-.88-1.16s-.06-1,.19-1.44c.34-.59.97-.95,1.65-.95.33,0,.66.09.95.25l2.44,1.41c.91.52,1.22,1.69.7,2.6-.34.58-.97.95-1.65.95Z"/>
      <path class="cls-5" d="M78.89,72.49c-.77,0-1.48.41-1.87,1.07-.29.49-.36,1.07-.21,1.63.15.55.5,1.02,1,1.3l2.44,1.41c.33.19.7.29,1.07.29.77,0,1.48-.41,1.87-1.07.59-1.03.24-2.34-.79-2.94l-2.44-1.41c-.33-.19-.7-.29-1.07-.29ZM78.89,72.98c.28,0,.56.07.83.22l2.44,1.41c.79.45,1.06,1.47.61,2.26-.31.53-.86.83-1.44.83-.28,0-.56-.07-.83-.22l-2.44-1.41c-.79-.45-1.06-1.47-.61-2.26.31-.53.86-.83,1.44-.83Z"/>
      <path class="cls-5" d="M78.82,75.53c-1.36.08-.45-1.27-2.08-1.3.59-.84,1.37-.91,1.95-.91.61,0,1.14.43,1.17,1.04s-.43,1.14-1.04,1.17Z"/>
      <path class="cls-4" d="M79.22,74.3c-.3.01-.51-.51-2.2-.2,1.1-.85,1.98-.59,2.29-.44.34.16.24.62-.09.64Z"/>
      <path class="cls-5" d="M76.39,78.5c-1.29-.42.04-1.34-1.46-1.97.86-.56,1.61-.36,2.14-.14.57.23.9.82.71,1.4-.18.58-.81.9-1.39.71Z"/>
      <path class="cls-4" d="M77.21,77.5c-.29-.09-.29-.67-1.98-.99,1.33-.39,2.06.17,2.3.42.26.28,0,.67-.32.57Z"/>
      <path class="cls-5" d="M73.56,80.66c-1.2-.65.29-1.31-1.08-2.2.94-.4,1.65-.05,2.14.25.52.33.74.97.44,1.5-.29.54-.97.74-1.5.44Z"/>
      <path class="cls-4" d="M74.54,79.82c-.26-.14-.17-.71-1.77-1.33,1.38-.13,1.99.54,2.18.84.21.32-.12.66-.41.5Z"/>
      <path class="cls-4" d="M75.46,79.54s.15.98-.27,1.33c.93.9,1.79,2.39,1.79,2.39,0,0,.65-.62.27-1.48-.13-.31-1.79-2.24-1.79-2.24Z"/>
      <path class="cls-4" d="M77.9,76.92s.38.92.05,1.36c1.12.66,2.3,1.9,2.3,1.9,0,0,.49-.76-.08-1.51-.2-.27-2.27-1.75-2.27-1.75Z"/>
      <path class="cls-4" d="M79.87,73.67s.46.88.18,1.35c1.17.55,2.46,1.69,2.46,1.69,0,0,.42-.8-.22-1.49-.23-.25-2.42-1.54-2.42-1.54Z"/>
      <path class="cls-4" d="M76.56,72.56c-.06-.17-.16-.29-.28-.39-.11-.1-.25-.18-.39-.25-.27-.13-.57-.21-.86-.22s-.58.04-.85.17c-.28.13-.53.33-.79.57.08-.34.29-.66.58-.89.3-.23.7-.36,1.08-.34.39.01.76.16,1.05.39.15.12.27.26.37.42.04.08.08.17.1.26.02.1.03.19,0,.28Z"/>
      <path class="cls-6" d="M41.53,33c.13-2.5,2.55-2.86,4.31-3.13.38-.06.74-.11,1.04-.18-1.88-3.58-3.12-4.34-3.84-4.34-1.08,0-1.54,1.8-1.54,1.82l-.11.44-.31-.33s-2.76-3.01-.59-5.18c.65-.65,1.51-.93,2.98-.97h.1s.07.06.07.06c.2.18.32.38.37.59.08.34-.04.59-.15.8-.05.11-.11.22-.13.34-.1.53.5,1.02,1.33,1.7.68.55,1.52,1.25,2.24,2.19,1.22,1.61,2.05,3.84,1.26,4.66-.3.31-.73.32-1.15.33-.44,0-.9.02-1.25.37-.1.1-.18.22-.26.38l-.07.14h-.16c-.29,0-.57,0-.84-.01-.34,0-.65-.01-.95-.01-.97,0-1.67.08-1.93.5l-.5.81.06-.95Z"/>
      <path class="cls-5" d="M43.66,20.87h-.2c-1.13.03-2.29.18-3.15,1.04-1.87,1.87-.43,4.43.59,5.53l.62.67.22-.88c.1-.42.57-1.63,1.3-1.63.42,0,1.56.4,3.46,3.92-.22.04-.46.07-.7.11-1.74.26-4.38.66-4.52,3.36l-.1,1.9,1.01-1.61c.21-.34.99-.39,1.72-.39.29,0,.61,0,.94.01.27,0,.55.01.84.01h.32s.13-.28.13-.28c.06-.13.13-.23.21-.31.28-.28.65-.28,1.08-.29.44,0,.95-.02,1.32-.41.98-1.02-.14-3.52-1.24-4.98-.74-.97-1.59-1.67-2.28-2.23-.74-.6-1.32-1.08-1.25-1.46.01-.08.06-.17.11-.27.11-.23.27-.53.17-.96-.06-.26-.21-.5-.44-.72l-.16-.13ZM43.47,21.37c.14.13.26.29.3.47.1.42-.21.64-.28,1.03-.22,1.19,2,1.96,3.62,4.09,1.18,1.56,1.92,3.67,1.28,4.34-.5.52-1.62-.07-2.39.69-.14.14-.23.29-.31.45-.66,0-1.26-.03-1.78-.03-1.05,0-1.81.1-2.14.61.16-2.99,3.94-2.66,5.46-3.17-1.9-3.68-3.26-4.74-4.2-4.74-1.28,0-1.78,2.01-1.78,2.01,0,0-2.62-2.82-.6-4.84.64-.65,1.51-.86,2.81-.89Z"/>
      <path class="cls-1" d="M40.91,40.69c-.09-.13-2.27-3.11-1.44-4.68l.12-.23.22.13c1.15.7,2.14,1.05,2.96,1.05.63,0,1.16-.22,1.57-.65,1.2-1.25,1.11-3.85,1.11-3.88v-.06l.02-.05c.1-.21.22-.38.36-.52.49-.48,1.1-.49,1.58-.5.35,0,.64-.01.8-.18.5-.52-.13-2.48-1.3-4.02-.68-.9-1.47-1.54-2.16-2.11-.93-.76-1.66-1.36-1.51-2.17.03-.19.11-.34.18-.47.1-.19.14-.3.11-.46-.03-.12-.1-.23-.23-.34l-.45-.41h.61c.15-.02.26-.02.38-.02.62,0,1.16-.06,1.73-.13.64-.08,1.31-.16,2.16-.16,1.01,0,2.14.12,3.42.37.76.14,1.82.57,3.05,1.07,1.94.78,4.35,1.75,6.13,1.76h.2l.04.2c.09.48,0,.92-.31,1.32-.88,1.16-3.26,1.55-4.11,1.65.34,1.15,1.47,5.42.82,9.16-.29,1.66-.28,3.59-.28,3.61v.24l-15.7.59-.08-.09Z"/>
      <path class="cls-5" d="M47.73,20.58c-.86,0-1.54.08-2.19.16-.56.07-1.1.13-1.7.13-.11,0-.22,0-.33,0h-.05l-1.22.03.9.83c.08.08.14.15.15.22.01.06,0,.11-.09.29-.07.14-.16.31-.2.53-.18.96.64,1.63,1.6,2.41.68.56,1.45,1.19,2.12,2.07,1.23,1.62,1.65,3.36,1.31,3.7-.08.09-.36.09-.63.1-.5,0-1.19.02-1.75.57-.16.16-.29.35-.41.59l-.05.11v.12s.09,2.54-1.03,3.7c-.37.39-.82.57-1.39.57-.77,0-1.71-.34-2.83-1.02l-.44-.27-.25.46c-.89,1.67,1.21,4.61,1.45,4.94l.15.21h.26s15.33-.58,15.33-.58l.48-.02v-.48s-.01-1.93.27-3.57c.62-3.53-.33-7.53-.74-9,1.05-.15,3.13-.58,3.99-1.71.34-.44.46-.97.36-1.51l-.08-.4h-.41c-1.73-.02-4.12-.98-6.04-1.74-1.25-.5-2.32-.93-3.1-1.08-1.29-.24-2.43-.36-3.45-.36ZM47.73,21.08c.88,0,1.95.09,3.38.36,1.96.38,6.31,2.81,9.23,2.83.44,2.3-4.5,2.71-4.5,2.71,0,0,1.64,5.07.89,9.34-.3,1.7-.29,3.66-.29,3.66l-15.33.57s-2.19-2.97-1.42-4.41c1.28.78,2.29,1.09,3.08,1.09,3.11,0,2.92-4.78,2.92-4.78.07-.16.17-.31.31-.45.77-.76,1.89-.17,2.39-.69.64-.67-.1-2.78-1.28-4.34-1.62-2.13-3.85-2.91-3.62-4.09.07-.4.38-.62.28-1.03-.04-.18-.15-.34-.3-.47.12,0,.24,0,.37,0,1.34,0,2.3-.3,3.89-.3Z"/>
      <path class="cls-1" d="M45.93,92.91c-.93-.73-1.41-1.75-1.31-2.79l.68-7.5c-.39,1.83-.84,3.82-1.14,4.97-.46,1.74-1.86,4.67-6,4.67-1.04,0-2.21-.19-3.46-.57l-.31-.09.17-.28c9.08-14.28,9.79-29.87,9.8-30.03v-.24h10.37v.24c.01.16.73,15.75,9.81,30.03l.17.28-.31.09c-1.26.38-2.42.57-3.46.57-4.15,0-5.55-2.93-6.01-4.67-.31-1.16-.75-3.14-1.14-4.97l.68,7.5c.09,1.04-.39,2.06-1.31,2.79l-3.6,2.83-3.61-2.83Z"/>
      <path class="cls-5" d="M54.95,60.8h-10.83l-.02.47c0,.15-.72,15.69-9.76,29.91l-.35.55.62.19c1.28.39,2.47.58,3.53.58,4.47,0,5.86-3.4,6.25-4.85.09-.35.2-.78.31-1.25l-.34,3.69c-.1,1.13.41,2.22,1.41,3l3.45,2.71.31.24.31-.24,3.45-2.71c1-.79,1.51-1.88,1.41-3l-.34-3.69c.11.47.22.9.31,1.25.39,1.46,1.77,4.85,6.25,4.85,1.07,0,2.25-.2,3.53-.58l.62-.19-.35-.55c-9.05-14.23-9.76-29.75-9.76-29.91l-.02-.47ZM54.47,61.3s.61,15.65,9.84,30.15c-1.3.39-2.42.56-3.39.56-3.79,0-5.26-2.57-5.77-4.49-.68-2.57-2.02-9.16-2.02-9.16l1.07,11.78c.09.95-.36,1.89-1.22,2.57l-3.45,2.71-3.45-2.71c-.86-.68-1.31-1.62-1.22-2.57l1.07-11.78s-1.33,6.59-2.02,9.16c-.51,1.92-1.98,4.49-5.77,4.49-.97,0-2.1-.17-3.39-.56,9.22-14.51,9.84-30.15,9.84-30.15h9.88Z"/>
      <path class="cls-5" d="M51.12,23.78l-.9-.45c-.61-.29-1.23-.57-1.94-.75-.35-.09-.75-.13-1.1-.11-.36,0-.7.06-1.03.11-.67.1-1.29.21-1.99.19.6.38,1.35.47,2.03.5.19,0,.38.01.57.02-.21.23-.34.53-.34.86,0,.71.57,1.29,1.28,1.29s1.29-.57,1.29-1.29c0-.17-.03-.33-.09-.48.36.1.72.22,1.09.31.33.09.67.16,1.02.21.34.03.73.08,1.06-.06-.34-.06-.63-.21-.93-.36Z"/>
      <path class="cls-4" d="M42.35,32.19c0-1.01,2.38-1.9,5-1.85-.5.28-1.32.91-1.7,1.04-1.5.5-1.92-.29-3.3.81Z"/>
      <path class="cls-5" d="M42.13,21.98c0,.22.59.77.81.77s0-.55,0-.77-.18-.41-.41-.41c-.22,0-.41.18-.41.41Z"/>
      <path class="cls-4" d="M41.31,22.29c-.36-.03-.74.74-.88,1.28-.3,1.16.3,2.23.6,2.69-.37-.99-.26-1.55-.04-1.88.27-.44.71-.5.82-.96.11-.48-.19-1.1-.49-1.13Z"/>
      <path class="cls-4" d="M46.91,21.83c1.02-.2,2.08-.19,3.12-.04.52.08,1.04.2,1.54.36.5.16,1,.36,1.46.58.47.22.91.44,1.36.65.45.2.9.39,1.37.56.93.35,1.9.63,2.9.92-1.03.12-2.09.04-3.11-.17-.51-.11-1.02-.25-1.52-.44-.49-.18-.97-.41-1.42-.62-.9-.43-1.8-.79-2.76-1.08-.94-.29-1.93-.5-2.95-.71Z"/>
      <path class="cls-4" d="M40.56,37.26c1.11.86,2.55,1.13,3.73.63,1.85-.79,2.13-3.03,2.18-3.46.08-.69,0-1.28-.09-1.67.23-.08.6-.2,1.07-.25,1.03-.1,1.4.26,2.02.08.68-.19,1.19-.88,1.34-1.56.22-.96-.29-2.03-1.27-2.58.23.04,1.2.25,1.82,1.15.63.9.65,2.12.09,3.04-.65,1.07-1.98,1.59-3.26,1.26,0,.55-.08,1.8-.89,3.04-.34.52-1.23,1.86-2.84,2.12-1.44.23-2.94-.49-3.91-1.79Z"/>
      <path class="cls-4" d="M51.47,25.85c.71.35,1.36.82,1.94,1.38s1.07,1.24,1.43,2c.18.37.33.78.43,1.2.1.42.16.86.16,1.28.02.85-.11,1.65-.22,2.41-.06.38-.12.75-.16,1.12-.05.37-.09.74-.13,1.11-.02.18-.03.37-.05.56-.01.19-.03.37-.04.56-.02.38-.03.75-.04,1.12-.02.75,0,1.51.02,2.27.03.77.08,1.53.13,2.32-.7-1.41-1.12-2.96-1.32-4.53-.1-.79-.13-1.59-.1-2.39,0-.2.01-.4.03-.6s.03-.4.05-.59c.04-.4.1-.79.15-1.17.06-.38.12-.76.17-1.13.06-.37.09-.72.11-1.07.02-.35,0-.68-.04-1.02-.03-.17-.05-.34-.09-.5-.03-.17-.08-.34-.14-.51-.21-.68-.52-1.34-.92-1.97-.2-.32-.42-.62-.64-.93-.24-.31-.48-.61-.74-.91Z"/>
      <path class="cls-4" d="M47.56,24.4c.29,0,.53-.24.53-.53s-.24-.53-.53-.53-.53.24-.53.53.24.53.53.53Z"/>
      <path class="cls-4" d="M49.37,66.77c.11.09.17.21.17.34,0,2.45,0,27.84,0,27.72,0-.08-1.82-1.82-3.03-2.96-.67-.63-1.01-1.45-.94-2.27l1.94-23.96c.01-.17.28-.24.43-.12l1.43,1.25Z"/>
      <path class="cls-1" d="M37.29,74.75c-2.09-1.53-2.26-4.65-2.26-5.62-.26.03-.66.06-1.15.06-1.63,0-4.56-.41-5.83-3.12l-.18-.39.43.04c.9.08,1.55.12,2.1.12,1.21,0,2.01-.19,2.56-.61-1.33-1.39-1.25-3.34-1.24-3.42l.02-.32.31.1s.68.21,1.52.21c1.01,0,1.82-.3,2.4-.88.25-.25.45-.54.67-.86.56-.81,1.27-1.82,3.24-2.78,1.05-.5,4.4-.67,4.54-.68h.21s1.61,8.31,1.61,8.31h-.3c-.18,0-4.41.09-4.62,6.55v.33s-.33-.11-.33-.11c-1.22-.41-1.76-1.43-1.99-2.07-.47.76-1.37,2.52-1.32,4.92v.5s-.4-.29-.4-.29Z"/>
      <path class="cls-5" d="M44.81,56.34l-.43.02c-.36.02-3.57.19-4.64.7-2.03.98-2.76,2.02-3.34,2.86-.22.32-.41.58-.64.82-.52.53-1.27.81-2.22.81-.8,0-1.44-.2-1.45-.2l-.61-.19-.03.64c0,.08-.09,1.94,1.11,3.39-.5.29-1.2.42-2.19.42-.54,0-1.18-.04-2.08-.12l-.86-.08.37.79c1.33,2.84,4.37,3.27,6.06,3.27.36,0,.67-.02.91-.04.04,1.23.35,4.08,2.36,5.55l.81.59-.02-1c-.04-1.99.57-3.5,1.04-4.37.32.64.9,1.41,1.94,1.76l.63.21.02-.67c.19-6.24,4.2-6.31,4.37-6.31h.6l-.11-.59-1.51-7.82-.08-.42ZM44.41,56.85l1.51,7.82s-4.65,0-4.86,6.79c-1.66-.56-1.97-2.41-1.97-2.41,0,0-1.73,2.11-1.66,5.5-2.36-1.73-2.15-5.71-2.15-5.71,0,0-.57.1-1.4.1-1.68,0-4.41-.42-5.61-2.99.78.07,1.49.12,2.12.12,1.28,0,2.27-.21,2.93-.85-1.47-1.33-1.36-3.42-1.36-3.42,0,0,.7.23,1.6.23.83,0,1.82-.2,2.57-.95.93-.94,1.17-2.29,3.84-3.58,1.01-.48,4.45-.65,4.45-.65Z"/>
      <path class="cls-4" d="M32.45,62.51s2.55.59,3.74-.56c2.44-2.38,2.98-4.36,8.32-4.65.35,1.78.57,2.94.57,2.94,0,0-4.52-.2-6.48,3.33-1.15,2.06-3.07,4.44-8.64,3.16,3.16.11,5.07-.77,6.68-3.37-2.78.56-4.18-.84-4.18-.84Z"/>
      <path class="cls-4" d="M45.27,61.3l.3,1.54s-4.42.52-5.28,6.26c-.9-6.42,4.98-7.79,4.98-7.79Z"/>
      <path class="cls-1" d="M61.35,74.55c.05-2.41-.84-4.17-1.32-4.92-.23.64-.77,1.66-1.99,2.07l-.32.11v-.33c-.21-6.45-4.44-6.55-4.63-6.55h-.3l1.61-8.32h.21c.14.01,3.5.18,4.54.69,1.97.95,2.68,1.96,3.24,2.78.22.31.42.6.67.86.57.58,1.38.88,2.4.88.84,0,1.51-.21,1.52-.21l.3-.1.02.32c0,.08.1,2.03-1.24,3.42.55.42,1.36.61,2.56.61.55,0,1.2-.04,2.1-.12l.43-.04-.18.39c-1.28,2.72-4.2,3.12-5.83,3.12-.49,0-.9-.03-1.15-.06,0,.98-.17,4.1-2.26,5.62l-.41.3v-.5Z"/>
      <path class="cls-5" d="M54.22,56.34l-.08.42-1.52,7.82-.11.59h.6c.17,0,4.18.11,4.37,6.31l.02.67.63-.21c1.04-.35,1.62-1.11,1.94-1.75.46.87,1.08,2.39,1.04,4.37l-.02,1,.81-.59c2.01-1.47,2.32-4.32,2.36-5.55.25.02.55.04.91.04,1.69,0,4.72-.43,6.06-3.27l.37-.79-.86.08c-.89.08-1.53.12-2.08.12-.99,0-1.69-.13-2.19-.42,1.21-1.44,1.12-3.3,1.11-3.39l-.03-.64-.61.2s-.65.2-1.44.2c-.94,0-1.7-.27-2.22-.81-.23-.24-.42-.51-.64-.82-.58-.84-1.3-1.88-3.34-2.86-1.07-.52-4.28-.69-4.64-.7l-.43-.03ZM54.62,56.85s3.43.17,4.45.66c2.67,1.29,2.91,2.63,3.84,3.58.75.76,1.74.95,2.57.95.89,0,1.6-.23,1.6-.23,0,0,.12,2.09-1.36,3.42.66.64,1.64.85,2.93.85.63,0,1.34-.05,2.12-.12-1.2,2.56-3.93,2.99-5.61,2.99-.83,0-1.4-.1-1.4-.1,0,0,.21,3.98-2.15,5.71.07-3.4-1.66-5.5-1.66-5.5,0,0-.31,1.85-1.97,2.41-.21-6.79-4.86-6.79-4.86-6.79l1.52-7.83Z"/>
      <path class="cls-4" d="M66.58,62.51s-2.55.59-3.74-.56c-2.44-2.38-2.98-4.36-8.32-4.65-.35,1.78-.57,2.94-.57,2.94,0,0,4.52-.2,6.48,3.33,1.15,2.06,3.07,4.44,8.64,3.16-3.16.11-5.07-.77-6.68-3.37,2.78.56,4.18-.84,4.18-.84Z"/>
      <path class="cls-4" d="M53.76,61.3l-.3,1.54s4.42.52,5.28,6.26c.9-6.42-4.98-7.79-4.98-7.79Z"/>
      <path class="cls-4" d="M36.13,90.67s3.34-5.87,5.03-10.36c2.15-5.74,3.41-13.13,3.64-14.59.02-.12.16-.18.26-.12l.88.55c.11.07.16.19.14.32-.31,1.88-2.68,16.13-3.93,18.86-2.44,5.34-6.02,5.34-6.02,5.34Z"/>
      <path class="cls-4" d="M62.41,90.67s-3.31-4.59-4.81-8.4c-1.28-3.27-3.85-13.09-4.46-15.85-.07-.32-.46-.43-.69-.21l-.76.72c-.16.15-.23.37-.18.58.5,2.37,3.46,16.3,4.29,18.88,1.98,6.16,6.62,4.28,6.62,4.28Z"/>
      <path class="cls-1" d="M64.99,29.32l.21-.1c.16-.08,15.77-7.93,20.18-12.09l.19-.18.17.19c.89,1.02,1.24,2.25,1.01,3.57-.38,2.14-2.27,4.39-4.95,5.87-4.37,2.41-14.31,7.37-14.41,7.42l-.23.11-2.17-4.78Z"/>
      <path class="cls-5" d="M85.59,16.59l-.37.35c-4.39,4.14-19.97,11.97-20.12,12.05l-.43.21.2.43,1.96,4.33.21.47.46-.23c.1-.05,10.04-5.01,14.42-7.42,2.74-1.51,4.69-3.83,5.08-6.04.25-1.39-.12-2.7-1.06-3.78l-.34-.39ZM85.55,17.3c2.51,2.86.06,6.88-3.88,9.05-4.42,2.43-14.4,7.41-14.4,7.41l-1.96-4.33s15.76-7.9,20.24-12.13Z"/>
      <path class="cls-4" d="M66.31,29.48s9.85-5.3,12.25-6.75c6.29-3.78,6.73-4.45,6.73-4.45,0,0,.66,2.8-2.08,4.59-2,1.3-16.16,8.64-16.16,8.64l-.74-2.03Z"/>
      <path class="cls-1" d="M65.39,32.44l.23-.04c.17-.03,16.82-2.95,22.07-5.57l.23-.11.1.23c.54,1.19.52,2.44-.06,3.59-.95,1.88-3.34,3.44-6.23,4.06-4.72,1.01-15.31,2.84-15.41,2.86l-.25.04-.67-5.06Z"/>
      <path class="cls-5" d="M88.05,26.37l-.46.23c-5.21,2.61-21.83,5.53-22,5.56l-.47.08.06.47.61,4.56.07.51.5-.09c.11-.02,10.7-1.84,15.42-2.86,2.97-.63,5.42-2.24,6.4-4.19.62-1.23.64-2.55.06-3.81l-.21-.46ZM87.81,27.05c1.52,3.35-1.86,6.4-6.12,7.31-4.77,1.02-15.41,2.85-15.41,2.85l-.61-4.56s16.79-2.93,22.13-5.6Z"/>
      <path class="cls-4" d="M66.59,32.97s10.61-2.17,13.23-2.84c6.88-1.75,7.48-2.25,7.48-2.25,0,0-.16,2.78-3.21,3.67-2.21.65-17.38,3.5-17.38,3.5l-.12-2.09Z"/>
      <path class="cls-1" d="M78.96,41.54c-.21,0-.43,0-.65-.02-4.48-.25-12.96-1.29-13.05-1.31l-.25-.03.63-4.72.24.02c.08,0,7.94.87,14.14.87,2.4,0,4.25-.13,5.51-.38l.25-.05.04.25c.19,1.17-.11,2.25-.86,3.13-1.18,1.4-3.43,2.24-6.01,2.24Z"/>
      <path class="cls-5" d="M65.44,35.18l-.06.48-.57,4.24-.06.49.49.06c.08,0,8.57,1.06,13.06,1.31.22,0,.44.02.66.02,2.65,0,4.97-.86,6.21-2.32.8-.94,1.12-2.09.91-3.33l-.08-.5-.5.1c-1.24.25-3.08.38-5.46.38-6.18,0-14.04-.86-14.12-.87l-.48-.05ZM65.87,35.73s7.89.87,14.17.87c2.17,0,4.16-.1,5.56-.39.52,3.19-2.84,5.08-6.63,5.08-.21,0-.42,0-.63-.02-4.53-.25-13.03-1.3-13.03-1.3l.57-4.24Z"/>
      <path class="cls-4" d="M66.31,36.26s8.85.73,11.37.77c6.6.11,7.25-.19,7.25-.19,0,0-.83,2.45-3.77,2.51-2.14.04-15.04-1.12-15.04-1.12l.19-1.96Z"/>
      <path class="cls-1" d="M77.37,48.01c-1.49,0-3.17-.47-4.74-1.32-4-2.18-7.89-4.59-7.93-4.62l-.21-.13,2.53-4.07.21.12c.09.05,8.99,5.41,14.32,6.74l.24.06-.06.24c-.49,1.88-2.09,2.97-4.35,2.97Z"/>
      <path class="cls-5" d="M66.94,37.54l-.26.42-2.27,3.65-.26.42.42.26s3.93,2.44,7.95,4.62c1.6.87,3.33,1.35,4.86,1.35,2.39,0,4.07-1.15,4.6-3.15l.13-.48-.48-.12c-5.3-1.33-14.17-6.66-14.26-6.72l-.42-.25ZM67.1,38.21s8.96,5.41,14.39,6.77c-.51,1.93-2.14,2.78-4.12,2.78-1.45,0-3.09-.46-4.62-1.29-4.04-2.2-7.92-4.61-7.92-4.61l2.27-3.65Z"/>
      <path class="cls-4" d="M67.28,38.9s4.34,2.25,6.62,3.39c5.99,2.98,6.72,2.99,6.72,2.99,0,0-1.77,1.89-4.48.66-1.98-.89-9.84-5.31-9.84-5.31l.98-1.72Z"/>
      <path class="cls-1" d="M72.87,52.7c-1.87,0-4.05-1.08-5.85-2.9-3.2-3.24-6.23-6.67-6.26-6.71l-.16-.19,3.6-3.16.16.18c.07.08,7.05,7.77,11.77,10.59l.22.13-.13.21c-.75,1.2-1.9,1.84-3.34,1.84Z"/>
      <path class="cls-5" d="M64.21,39.39l-.37.32-3.23,2.84-.37.33.33.37s3.06,3.47,6.27,6.72c1.84,1.86,4.09,2.97,6.02,2.97,1.53,0,2.76-.68,3.55-1.96l.26-.43-.43-.26c-4.69-2.8-11.64-10.47-11.71-10.54l-.33-.36ZM64.17,40.09s7.02,7.76,11.82,10.64c-.74,1.2-1.86,1.72-3.13,1.72-1.83,0-3.96-1.1-5.67-2.83-3.24-3.28-6.25-6.7-6.25-6.7l3.23-2.84Z"/>
      <path class="cls-4" d="M64.15,40.8s3.5,3.41,5.36,5.15c4.88,4.58,5.57,4.79,5.57,4.79,0,0-2.24,1.3-4.49-.66-1.64-1.43-7.89-7.92-7.89-7.92l1.44-1.36Z"/>
      <path class="cls-1" d="M68.13,56.15c-2.05,0-4.42-1.65-6.02-4.2-2.43-3.85-4.65-7.86-4.67-7.9l-.12-.22,4.2-2.32.12.21c.05.09,5.21,9.11,9.21,12.88l.18.17-.17.18c-.77.79-1.68,1.19-2.72,1.19Z"/>
      <path class="cls-5" d="M61.61,41.18l-.43.24-3.77,2.08-.43.24.24.43s2.24,4.05,4.68,7.91c1.65,2.62,4.09,4.31,6.23,4.31,1.1,0,2.1-.43,2.9-1.26l.35-.36-.37-.35c-3.97-3.75-9.11-12.73-9.16-12.82l-.25-.43ZM61.42,41.85s5.18,9.09,9.25,12.93c-.75.77-1.63,1.11-2.55,1.11-2.05,0-4.3-1.69-5.81-4.08-2.45-3.89-4.67-7.89-4.67-7.89l3.77-2.08Z"/>
      <path class="cls-4" d="M61.24,42.54s2.69,4.08,4.13,6.19c3.78,5.53,4.4,5.88,4.4,5.88,0,0-2.47.79-4.24-1.61-1.29-1.75-5.99-9.43-5.99-9.43l1.7-1.02Z"/>
      <path class="cls-1" d="M62.72,58.09c-2.3,0-4.62-2.24-5.76-5.57-1.48-4.31-2.72-8.72-2.73-8.76l-.07-.24,4.62-1.29.07.23c.03.1,2.98,10.06,6.01,14.65l.14.21-.21.13c-.65.42-1.34.63-2.06.63Z"/>
      <path class="cls-5" d="M58.95,41.93l-.47.13-4.14,1.16-.47.13.13.47s1.26,4.46,2.74,8.77c1.18,3.43,3.58,5.73,5.99,5.73.76,0,1.5-.23,2.19-.67l.42-.27-.28-.42c-3.01-4.56-5.95-14.48-5.98-14.58l-.13-.46ZM58.61,42.54s2.96,10.04,6.04,14.71c-.64.41-1.28.59-1.93.59-2.29,0-4.48-2.36-5.52-5.4-1.49-4.35-2.73-8.75-2.73-8.75l4.14-1.16Z"/>
      <path class="cls-4" d="M58.28,43.17s1.68,4.59,2.59,6.97c2.41,6.24,2.94,6.74,2.94,6.74,0,0-2.58.2-3.76-2.54-.86-2-3.67-10.56-3.67-10.56l1.89-.61Z"/>
      <path class="cls-1" d="M59.82,53.29c-1.77-.66-2.94-3.03-3.23-3.67l-7.31.06v-7.93h.25c7.31,0,12.1-1.47,14.22-4.38,1.66-2.27,1.33-5,.74-6.93-2.25-.18-3.04-1.14-3.31-1.92-.46-1.36.36-3.06,1.11-3.72,1.88-1.65,4.49-3.48,7.25-5.41,5.66-3.97,12.08-8.46,13.54-12.49l.12-.35.27.25c1.18,1.07,1.81,2.63,1.78,4.4-.03,2.3-1.2,4.71-3.03,6.27-2.76,2.36-6.71,4.97-8.69,6.24.62-.11,1.37-.21,2.11-.21.55,0,1.04.05,1.46.16l.21.05-.03.22c-.34,2.33-2.36,3.95-3.61,4.75.27-.01.56-.02.87-.02,1.41,0,2.38.2,2.88.58l.11.08v.13c-.24,2.86-2.85,4.24-4.34,4.79,1.06.25,2.64.86,3.36,2.34l.06.13-.08.12c-.94,1.33-2.91,1.61-4.39,1.61-.26,0-.5,0-.72-.02,1.01.63,2.35,1.77,2.84,3.54l.05.19-.17.09c-.68.38-1.48.57-2.39.57-1.25,0-2.45-.36-3.27-.68.67.85,1.5,2.23,1.47,3.8v.2s-.2.04-.2.04c-.2.04-.42.06-.65.06-1.3,0-2.74-.65-3.63-1.13.45.84,1.01,2.2.97,3.74v.21s-.21.03-.21.03c-.23.03-.46.05-.7.05-1.86,0-3.38-1-4.15-1.63.18,1.32.34,4.14-1.29,5.72l-.11.11-.14-.05Z"/>
      <path class="cls-5" d="M83.1,6.13l-.25.7c-1.43,3.95-7.81,8.42-13.45,12.37-2.77,1.94-5.38,3.77-7.28,5.43-.82.72-1.69,2.51-1.18,3.98.29.83,1.1,1.84,3.36,2.07.54,1.87.8,4.43-.76,6.56-2.08,2.84-6.79,4.28-14.03,4.28h-.49v8.42h.5s6.9-.06,6.9-.06c.39.82,1.56,3,3.3,3.65l.29.11.22-.22c1.49-1.45,1.56-3.86,1.42-5.36.87.61,2.23,1.33,3.84,1.33.25,0,.49-.01.74-.05l.42-.06v-.42c.04-1.23-.3-2.35-.67-3.2.89.42,2.03.83,3.09.83.24,0,.48-.02.7-.06l.39-.07v-.4c.03-1.28-.49-2.45-1.05-3.31.76.24,1.68.43,2.62.43s1.79-.2,2.51-.6l.34-.19-.1-.38c-.41-1.46-1.36-2.51-2.27-3.21,2.16-.01,3.72-.61,4.51-1.71l.17-.24-.13-.26c-.61-1.26-1.81-1.93-2.83-2.27,1.55-.71,3.62-2.13,3.84-4.73l.02-.27-.21-.16c-.55-.42-1.55-.63-3.03-.63h-.04c1.24-.92,2.74-2.42,3.03-4.44l.06-.44-.43-.11c-.43-.11-.95-.17-1.52-.17-.35,0-.7.02-1.03.05,2.13-1.39,5.39-3.61,7.77-5.65,1.92-1.64,3.08-4.05,3.12-6.45.03-1.84-.63-3.46-1.86-4.59l-.55-.5ZM83.31,6.99c2.81,2.56,1.96,7.56-1.25,10.3-3.84,3.28-9.89,6.99-9.89,6.99,0,0,1.77-.53,3.47-.53.48,0,.96.04,1.39.15-.47,3.25-4.46,5.12-4.46,5.12,0,0,.92-.11,1.97-.11s2.18.11,2.73.53c-.31,3.81-5.17,4.89-5.17,4.89,0,0,3.15.19,4.22,2.37-.87,1.24-2.73,1.5-4.19,1.5-1.13,0-2.02-.16-2.02-.16,0,0,3.12,1.17,3.9,3.99-.71.4-1.49.54-2.27.54-2.16,0-4.24-1.14-4.24-1.14,0,0,2.23,2.04,2.18,4.5-.19.04-.4.05-.6.05-1.99,0-4.38-1.62-4.38-1.62,0,0,1.53,2.03,1.47,4.46-.23.03-.45.04-.67.04-2.58,0-4.52-2.05-4.52-2.05,0,0,.97,4.22-1.09,6.21-1.94-.72-3.15-3.68-3.15-3.68l-7.23.06v-7.43c17.17,0,16.32-8.14,15.15-11.8-4.92-.31-3.35-4.23-2.22-5.22,5.79-5.07,18.68-11.94,20.87-17.99Z"/>
      <path class="cls-4" d="M70.26,19.97s5.13-3.68,7.35-5.38c5.83-4.46,5.71-6.31,5.71-6.31,0,0,1.45,3.84-1.08,5.92-1.84,1.52-12.08,8.83-13.09,9.49,1.23-1.5,1.11-3.72,1.11-3.72Z"/>
      <path class="cls-4" d="M65.35,23.43c-1.85,1.46-3.65,3.59-2.08,5.09s3.52.71,3.52.71c0,0-2.81-.22-2.73-2.69,5.55-1.19,5.46-5.25,5.52-6.18-.77.63-3.99,2.88-4.23,3.07Z"/>
      <path class="cls-4" d="M76.67,24.24c-.09.04-7.4,4.59-7.4,4.59,0,0,1.35-3.26,2.57-3.93,1.75-.94,4.82-.66,4.82-.66Z"/>
      <path class="cls-4" d="M76.93,29.67l-6.79,2.69s1.27-2.4,2.64-2.92c1.38-.52,4.15.23,4.15.23Z"/>
      <path class="cls-4" d="M69.12,35.58l6.86,1.06s-1.44-1.34-3.43-1.81c-1.12-.27-3.43.75-3.43.75Z"/>
      <path class="cls-4" d="M67.8,39.14c.09,0,5.73,2.71,5.73,2.71,0,0-.7-1.89-2.25-2.71-1.54-.83-3.48,0-3.48,0Z"/>
      <path class="cls-4" d="M64.82,41.45l4.29,4.14s0-1.78-1.46-3.28c-1.11-1.14-2.83-.86-2.83-.86Z"/>
      <path class="cls-4" d="M62.15,44.61s3.56,4.05,3.56,3.96-.16-1.94-.89-3.11c-.73-1.18-2.67-.85-2.67-.85Z"/>
      <path class="cls-4" d="M58.24,46.41s1.47,6.37,1.47,6.27,1.15-2.34.98-4.12c-.16-1.78-2.46-2.15-2.46-2.15Z"/>
      <path class="cls-1" d="M31.42,33.99c-.1-.05-10.03-5.01-14.41-7.42-2.68-1.47-4.58-3.72-4.95-5.87-.23-1.32.11-2.55,1.01-3.57l.17-.19.19.18c4.41,4.16,20.03,12.01,20.18,12.09l.21.1-2.16,4.79-.23-.12Z"/>
      <path class="cls-5" d="M13.21,16.59l-.34.39c-.94,1.08-1.31,2.38-1.06,3.78.39,2.22,2.34,4.53,5.08,6.04,4.38,2.41,14.32,7.37,14.42,7.42l.46.23.21-.47,1.96-4.33.2-.43-.43-.21c-.16-.08-15.74-7.91-20.12-12.05l-.38-.35ZM13.24,17.3c4.49,4.24,20.24,12.13,20.24,12.13l-1.96,4.33s-9.98-4.98-14.4-7.41c-3.94-2.17-6.38-6.2-3.87-9.05Z"/>
      <path class="cls-4" d="M32.48,29.48s-9.85-5.3-12.25-6.75c-6.29-3.78-6.73-4.45-6.73-4.45,0,0-.66,2.8,2.08,4.59,2,1.3,16.16,8.64,16.16,8.64l.74-2.03Z"/>
      <path class="cls-1" d="M32.47,37.45c-.11-.02-10.69-1.84-15.41-2.86-2.9-.62-5.28-2.17-6.23-4.06-.58-1.16-.6-2.4-.06-3.59l.1-.23.23.11c5.25,2.62,21.9,5.55,22.07,5.57l.23.04-.67,5.06-.25-.04Z"/>
      <path class="cls-5" d="M10.75,26.37l-.21.46c-.57,1.27-.55,2.58.06,3.81.98,1.95,3.43,3.55,6.4,4.19,4.73,1.01,15.32,2.84,15.42,2.86l.5.09.07-.51.61-4.56.06-.47-.47-.08c-.17-.03-16.78-2.94-22-5.56l-.45-.23ZM10.99,27.05c5.34,2.67,22.13,5.6,22.13,5.6l-.61,4.56s-10.63-1.83-15.41-2.85c-4.26-.91-7.64-3.96-6.12-7.31Z"/>
      <path class="cls-4" d="M32.21,32.97s-10.61-2.17-13.23-2.84c-6.88-1.75-7.48-2.25-7.48-2.25,0,0,.16,2.78,3.21,3.67,2.21.65,17.38,3.5,17.38,3.5l.12-2.09Z"/>
      <path class="cls-1" d="M19.83,41.54c-2.58,0-4.83-.84-6.02-2.23-.75-.88-1.05-1.97-.86-3.13l.04-.25.25.05c1.26.25,3.11.38,5.51.38,6.2,0,14.07-.86,14.14-.87l.24-.02.63,4.72-.25.03c-.08,0-8.56,1.06-13.05,1.31-.21,0-.43.01-.65.01Z"/>
      <path class="cls-5" d="M33.35,35.18l-.48.05c-.08,0-7.93.87-14.12.87-2.38,0-4.22-.13-5.46-.38l-.5-.1-.08.5c-.2,1.24.11,2.39.91,3.33,1.24,1.45,3.55,2.32,6.21,2.32.22,0,.44,0,.66-.02,4.49-.25,12.98-1.3,13.06-1.31l.49-.06-.06-.49-.57-4.24-.07-.48ZM32.93,35.73l.57,4.24s-8.5,1.06-13.03,1.3c-.21,0-.43.02-.63.02-3.79,0-7.15-1.88-6.63-5.08,1.4.28,3.38.39,5.56.39,6.28,0,14.17-.87,14.17-.87Z"/>
      <path class="cls-4" d="M32.48,36.26s-8.85.73-11.37.77c-6.6.11-7.25-.19-7.25-.19,0,0,.83,2.45,3.77,2.51,2.14.04,15.04-1.12,15.04-1.12l-.19-1.96Z"/>
      <path class="cls-1" d="M21.43,48.01c-2.27,0-3.86-1.08-4.36-2.96l-.06-.24.24-.06c5.33-1.34,14.23-6.69,14.32-6.74l.21-.12,2.53,4.07-.21.13s-3.93,2.43-7.93,4.62c-1.56.85-3.24,1.31-4.73,1.31Z"/>
      <path class="cls-5" d="M31.85,37.54l-.42.25c-.09.05-8.96,5.39-14.26,6.72l-.48.12.13.48c.53,2,2.21,3.15,4.6,3.15,1.53,0,3.26-.48,4.86-1.35,4.01-2.18,7.91-4.6,7.95-4.62l.42-.26-.26-.42-2.27-3.65-.26-.42ZM31.69,38.21l2.27,3.65s-3.88,2.41-7.92,4.61c-1.53.83-3.17,1.29-4.62,1.29-1.98,0-3.61-.86-4.12-2.78,5.43-1.36,14.39-6.77,14.39-6.77Z"/>
      <path class="cls-4" d="M31.51,38.9s-4.34,2.25-6.62,3.39c-5.99,2.98-6.72,2.99-6.72,2.99,0,0,1.77,1.89,4.48.66,1.98-.89,9.84-5.31,9.84-5.31l-.98-1.72Z"/>
      <path class="cls-1" d="M25.93,52.69c-1.44,0-2.59-.64-3.34-1.84l-.13-.21.22-.13c4.72-2.82,11.7-10.51,11.77-10.59l.16-.18,3.6,3.16-.16.19s-3.06,3.46-6.26,6.71c-1.79,1.82-3.98,2.9-5.85,2.9Z"/>
      <path class="cls-5" d="M34.59,39.39l-.33.36c-.07.08-7.02,7.74-11.71,10.54l-.43.26.26.43c.79,1.28,2.02,1.96,3.55,1.96,1.93,0,4.18-1.11,6.02-2.97,3.21-3.25,6.24-6.68,6.27-6.72l.33-.37-.37-.33-3.23-2.84-.37-.32ZM34.63,40.09l3.23,2.84s-3.02,3.42-6.25,6.7c-1.71,1.73-3.84,2.83-5.67,2.83-1.27,0-2.39-.52-3.13-1.72,4.81-2.88,11.83-10.64,11.83-10.64Z"/>
      <path class="cls-4" d="M34.65,40.8s-3.5,3.41-5.36,5.15c-4.88,4.58-5.57,4.79-5.57,4.79,0,0,2.24,1.3,4.49-.66,1.64-1.43,7.89-7.92,7.89-7.92l-1.44-1.36Z"/>
      <path class="cls-1" d="M30.67,56.15c-1.04,0-1.96-.4-2.72-1.19l-.17-.18.18-.17c4-3.77,9.16-12.79,9.21-12.88l.12-.21,4.2,2.32-.12.22s-2.24,4.04-4.67,7.9c-1.61,2.55-3.97,4.2-6.02,4.2Z"/>
      <path class="cls-5" d="M37.19,41.18l-.24.43c-.05.09-5.19,9.07-9.16,12.82l-.37.35.35.36c.8.83,1.8,1.26,2.9,1.26,2.14,0,4.58-1.69,6.23-4.31,2.43-3.86,4.66-7.87,4.68-7.91l.24-.43-.43-.24-3.77-2.08-.43-.24ZM37.38,41.85l3.77,2.08s-2.21,3.99-4.67,7.89c-1.51,2.4-3.77,4.08-5.81,4.08-.92,0-1.8-.34-2.55-1.11,4.08-3.84,9.26-12.93,9.26-12.93Z"/>
      <path class="cls-4" d="M37.56,42.54s-2.69,4.08-4.13,6.19c-3.78,5.53-4.4,5.88-4.4,5.88,0,0,2.47.79,4.24-1.61,1.29-1.75,5.99-9.43,5.99-9.43l-1.7-1.02Z"/>
      <path class="cls-1" d="M36.07,58.09c-.71,0-1.41-.21-2.06-.63l-.21-.13.14-.21c3.03-4.59,5.98-14.55,6.01-14.65l.07-.23,4.62,1.29-.07.24s-1.26,4.45-2.73,8.76c-1.14,3.33-3.45,5.57-5.76,5.57Z"/>
      <path class="cls-5" d="M39.85,41.93l-.14.47c-.03.1-2.97,10.02-5.98,14.58l-.28.42.42.27c.7.44,1.43.67,2.19.67,2.41,0,4.81-2.3,5.99-5.73,1.48-4.32,2.72-8.73,2.74-8.77l.13-.47-.47-.13-4.14-1.16-.46-.14ZM40.18,42.54l4.14,1.16s-1.24,4.39-2.73,8.75c-1.04,3.03-3.23,5.4-5.52,5.4-.64,0-1.29-.18-1.93-.59,3.08-4.67,6.03-14.71,6.03-14.71Z"/>
      <path class="cls-4" d="M40.51,43.17s-1.68,4.59-2.59,6.97c-2.41,6.24-2.94,6.74-2.94,6.74,0,0,2.58.2,3.76-2.54.86-2,3.67-10.56,3.67-10.56l-1.89-.61Z"/>
      <path class="cls-1" d="M38.72,53.24c-1.63-1.58-1.47-4.4-1.29-5.72-.77.63-2.29,1.63-4.15,1.63-.23,0-.47-.01-.7-.05l-.21-.03v-.21c-.04-1.53.51-2.9.97-3.74-.89.48-2.33,1.13-3.63,1.13-.23,0-.44-.02-.65-.06l-.2-.04v-.2c-.03-1.56.8-2.95,1.46-3.8-.83.32-2.03.68-3.27.68-.9,0-1.71-.19-2.39-.57l-.17-.09.05-.19c.49-1.77,1.83-2.91,2.84-3.54-.22.01-.47.02-.72.02-1.48,0-3.45-.28-4.39-1.61l-.08-.12.06-.13c.72-1.48,2.29-2.09,3.36-2.34-1.49-.56-4.1-1.93-4.33-4.79v-.13s.1-.08.1-.08c.5-.39,1.47-.58,2.88-.58.31,0,.61,0,.87.02-1.25-.8-3.28-2.42-3.61-4.75l-.03-.22.21-.05c.42-.11.9-.16,1.46-.16.74,0,1.49.1,2.11.21-1.98-1.27-5.93-3.87-8.69-6.24-1.83-1.57-3-3.97-3.03-6.27-.03-1.76.6-3.33,1.78-4.4l.27-.25.12.35c1.45,4.03,7.87,8.52,13.54,12.49,2.76,1.94,5.37,3.76,7.25,5.41.75.66,1.57,2.36,1.11,3.72-.27.78-1.06,1.74-3.31,1.92-.59,1.94-.91,4.66.74,6.93,2.12,2.91,6.91,4.38,14.22,4.38h.25v7.93l-7.31-.06c-.29.64-1.45,3.01-3.23,3.67l-.15.05-.1-.11Z"/>
      <path class="cls-5" d="M15.69,6.13l-.55.5c-1.23,1.12-1.89,2.75-1.86,4.59.04,2.41,1.21,4.82,3.12,6.45,2.38,2.04,5.64,4.26,7.77,5.65-.34-.03-.69-.05-1.03-.05-.57,0-1.08.06-1.52.17l-.43.11.06.44c.29,2.02,1.79,3.52,3.03,4.44h-.04c-1.49,0-2.48.21-3.03.63l-.21.16.02.27c.21,2.6,2.28,4.02,3.84,4.73-1.02.35-2.22,1.01-2.83,2.27l-.13.26.17.24c.78,1.11,2.34,1.7,4.51,1.71-.9.7-1.86,1.74-2.27,3.21l-.1.38.34.19c.72.4,1.56.6,2.51.6s1.86-.2,2.62-.43c-.56.87-1.09,2.03-1.06,3.31v.4s.4.07.4.07c.22.04.45.06.7.06,1.06,0,2.21-.41,3.09-.83-.37.85-.71,1.97-.68,3.2v.42s.43.06.43.06c.24.03.49.05.74.05,1.61,0,2.97-.72,3.84-1.33-.13,1.5-.07,3.91,1.42,5.36l.22.22.29-.11c1.74-.65,2.91-2.83,3.3-3.65l6.9.06h.5s0-.49,0-.49v-7.92h-.49c-7.24,0-11.95-1.44-14.03-4.28-1.55-2.13-1.3-4.69-.76-6.56,2.25-.23,3.07-1.24,3.36-2.07.5-1.48-.36-3.27-1.18-3.98-1.89-1.66-4.5-3.49-7.28-5.43-5.63-3.94-12.02-8.42-13.45-12.37l-.25-.69ZM15.48,6.99c2.18,6.05,15.08,12.92,20.86,18,1.13.99,2.69,4.92-2.22,5.22-1.17,3.65-2.02,11.8,15.15,11.8v7.43l-7.23-.06s-1.22,2.97-3.15,3.68c-2.06-2-1.09-6.21-1.09-6.21,0,0-1.94,2.05-4.52,2.05-.22,0-.44-.01-.67-.04-.06-2.44,1.47-4.46,1.47-4.46,0,0-2.39,1.62-4.38,1.62-.21,0-.41-.01-.6-.05-.04-2.45,2.18-4.5,2.18-4.5,0,0-2.08,1.14-4.24,1.14-.78,0-1.56-.14-2.27-.54.78-2.83,3.9-3.99,3.9-3.99,0,0-.89.16-2.02.16-1.46,0-3.32-.27-4.19-1.5,1.06-2.18,4.22-2.37,4.22-2.37,0,0-4.86-1.08-5.17-4.89.55-.42,1.71-.53,2.73-.53s1.97.11,1.97.11c0,0-3.99-1.87-4.46-5.12.43-.11.91-.15,1.39-.15,1.7,0,3.47.53,3.47.53,0,0-6.06-3.71-9.89-6.99-3.2-2.75-4.06-7.75-1.25-10.31Z"/>
      <path class="cls-4" d="M28.54,19.97s-5.13-3.68-7.35-5.38c-5.83-4.46-5.71-6.31-5.71-6.31,0,0-1.45,3.84,1.08,5.92,1.84,1.52,12.08,8.83,13.09,9.49-1.24-1.5-1.11-3.72-1.11-3.72Z"/>
      <path class="cls-4" d="M33.45,23.43c1.85,1.46,3.65,3.59,2.08,5.09s-3.52.71-3.52.71c0,0,2.81-.22,2.73-2.69-5.55-1.19-5.46-5.25-5.52-6.18.77.63,3.99,2.88,4.23,3.07Z"/>
      <path class="cls-4" d="M22.13,24.24c.09.04,7.4,4.59,7.4,4.59,0,0-1.35-3.26-2.57-3.93-1.75-.94-4.82-.66-4.82-.66Z"/>
      <path class="cls-4" d="M21.87,29.67l6.79,2.69s-1.27-2.4-2.64-2.92c-1.38-.52-4.15.23-4.15.23Z"/>
      <path class="cls-4" d="M29.68,35.58l-6.86,1.06s1.44-1.34,3.43-1.81c1.13-.27,3.43.75,3.43.75Z"/>
      <path class="cls-4" d="M31,39.14c-.09,0-5.73,2.71-5.73,2.71,0,0,.7-1.89,2.25-2.71,1.54-.83,3.48,0,3.48,0Z"/>
      <path class="cls-4" d="M33.98,41.45l-4.29,4.14s0-1.78,1.46-3.28c1.11-1.14,2.83-.86,2.83-.86Z"/>
      <path class="cls-4" d="M36.65,44.61s-3.56,4.05-3.56,3.96.16-1.94.89-3.11c.73-1.18,2.67-.85,2.67-.85Z"/>
      <path class="cls-4" d="M40.55,46.41s-1.47,6.37-1.47,6.27-1.15-2.34-.98-4.12c.16-1.78,2.46-2.15,2.46-2.15Z"/>
      <path class="cls-3" d="M36.51,40.47v11.29c0,7.8,3.81,14.9,13.02,18.65,9.21-3.76,13.02-10.86,13.02-18.65v-11.29h-26.05Z"/>
      <path class="cls-1" d="M36.76,51.76c0,8.46,4.54,14.99,12.78,18.39,8.24-3.4,12.78-9.92,12.78-18.39v-11.04h-25.55v11.04ZM49.44,71.73c-9.13-3.58-14.16-10.67-14.16-19.97v-12.53h28.51v12.53c0,9.3-5.03,16.39-14.16,19.97l-.09.03-.09-.03Z"/>
      <path class="cls-5" d="M37,40.97h25.05v10.79c0,8.32-4.45,14.75-12.53,18.12-8.08-3.37-12.53-9.8-12.53-18.12v-10.79h0ZM64.03,38.99h-29.01v12.78c0,4.36,1.18,8.44,3.41,11.79,2.46,3.71,6.14,6.54,10.92,8.41l.18.07.18-.07c4.78-1.87,8.45-4.7,10.92-8.41,2.23-3.36,3.41-7.43,3.41-11.79v-12.78h0ZM49.53,70.41c9.21-3.76,13.02-10.86,13.02-18.65v-11.29h-26.04v11.29c0,7.8,3.81,14.9,13.02,18.65ZM63.54,39.48v12.28c0,8.24-4.2,15.9-14.01,19.74-9.82-3.85-14.01-11.51-14.01-19.74v-12.28h28.02Z"/>
      <path class="cls-5" d="M49.53,42.6s-.15.17-.19.23c-1.56,2.29-1.66,4.15-1.63,5.95l.05,4.8c0,.08-.12.1-.14.02-.5-1.58-1.93-2.73-3.6-2.73-2.1,0-3.88,1.83-3.88,3.99,0,2.44,1.91,3.95,3.68,3.95.64,0,1.18-.21,1.53-.59.19-.21.18-.38.13-.48-.06-.15-.22-.23-.46-.23-.58,0-1.05-.5-1.05-1.11s.47-1.11,1.05-1.11c1.3,0,1.82,1.33,1.88,2.3.05.75.09,1.5-.04,2.19-.19,1.03-.75,1.4-1.21,1.4-.1,0-.21-.02-.3-.05-.23-.08-.39-.32-.42-.58-.01-.12,0-.42.29-.62.04-.03.08-.06.1-.11.05-.12.05-.26-.02-.37-.09-.15-.29-.23-.56-.23-.67,0-1.57.45-1.96,1.46-.42,1.07-.22,2.26.51,3.04.5.54,1.27.86,2.03.86.56,0,1.1-.17,1.57-.49.89-.61,1.23-1.54,1.35-2.25l.02.07c.02.09.04.18.04.28.01.9.03,1.72.04,2.28,0,.12-.06.24-.16.31-.02.01-.04.03-.06.05-.21.19-.29.37-.24.55l.2.96s0,.02,0,.04c.06.15.32.52,1.44.52v-24.29ZM49.53,42.6v24.28c1.12,0,1.38-.38,1.44-.52,0-.01,0-.02,0-.03l.2-.96c.05-.18-.03-.36-.24-.55-.02-.02-.04-.03-.07-.05-.1-.07-.15-.18-.15-.3,0-.59.02-1.94.04-2.9l.05.27c.13.72.46,1.64,1.35,2.25.47.33,1.01.49,1.57.49.77,0,1.52-.32,2.03-.86.73-.78.93-1.98.51-3.04-.4-1-1.29-1.46-1.96-1.46-.27,0-.46.08-.56.23-.07.11-.08.25-.01.38.02.04.06.07.1.1.29.2.3.49.29.62-.02.27-.19.49-.42.58-.09.03-.2.05-.3.05-.45,0-1.01-.37-1.21-1.39-.13-.69-.09-1.44-.04-2.19.07-.97.59-2.3,1.88-2.3.58,0,1.05.5,1.05,1.11s-.47,1.11-1.05,1.11c-.24,0-.4.07-.46.23-.04.1-.06.27.13.48.35.38.89.59,1.53.59,1.77,0,3.68-1.51,3.68-3.95,0-2.16-1.77-3.99-3.88-3.99-1.89,0-3.47,1.46-3.75,3.37l.06-5.47c.02-1.8-.07-3.65-1.63-5.95-.04-.06-.15-.23-.19-.23Z"/>
      <path class="cls-1" d="M50.34,57.49v-8.4c0-1.39-.81-2.29-.81-2.29.3.65.37,1.48.37,2.26v8.58c0,.3.12.43.9.55-.45-.26-.46-.37-.46-.71ZM48.04,58.01l-.1-9.24c-.02-1.96.15-3.75,1.59-5.82,1.44,2.08,1.62,3.86,1.59,5.82l-.1,9.22c0,.25.15.32.66.39.03,0,.15.16.15.18v.55s-.07.12-.1.13c-.31.05-.72.11-.88.22-.16.11-.17.08-.32.04-.49-.13-1.5-.16-2.03,0-.14.04-.16.06-.29-.03-.16-.12-.58-.18-.89-.23-.03,0-.1-.11-.1-.13v-.55s.08-.18.11-.19c.71-.11.71-.11.71-.36Z"/>
      <path class="cls-4" d="M49.53,66.64c-.82,0-1.15-.21-1.22-.37l-.2-.96c-.03-.1.07-.22.17-.31.2-.18.18.05.18.1,0,.34,2.15.33,2.15,0,0-.13.04-.22.17-.11.1.09.2.21.17.32l-.2.96c-.07.16-.4.37-1.22.37ZM49.14,65.77c-.19-.03-.13.33.06.36.2.02.4.03.64,0,.19-.02.25-.39.05-.36-.24.04-.56.03-.76,0Z"/>
      <path class="cls-1" d="M48.51,59.95c0-.29,2.06-.31,2.06.04,0,.05-.08,4.31-.08,4.86,0,.26-1.9.25-1.9,0,0-.48-.07-4.83-.07-4.9ZM49.2,62.32c0,.19.15.35.33.35s.33-.15.33-.35-.15-.35-.33-.35-.33.15-.33.35ZM49.2,63.72c0,.19.15.35.33.35s.33-.15.33-.35-.15-.35-.33-.35c-.18,0-.33.16-.33.35ZM49.2,60.91c0,.19.15.35.33.35s.33-.15.33-.35-.15-.35-.33-.35-.33.15-.33.35Z"/>
      <path class="cls-4" d="M48.7,64.7c0-.82-.01-1.99-.01-4.36,0-.14.96-.24.96-.12,0,.21-.01.23-.11.23-.24,0-.46.18-.46.48v2.86c0,.25.17.44.46.44.15,0,.11.4.11.58,0,.11-.94.05-.94-.1Z"/>
      <path class="cls-4" d="M49.17,57.65v-8.58c0-.78.07-1.61.37-2.26,0,.01,0,.03.02.05.28.65.35,1.45.35,2.21v8.58c0,.7.3.73.3.86v.35c0,.12-.05.18-.18.18h-2.57c-.11,0-.23-.09-.23-.2v-.29s.06-.19.12-.19c1.04-.14,1.82-.18,1.82-.71ZM48.75,57.41c0,.31-.04.34-.72.68l-.1-9.32c-.02-1.96.15-3.75,1.59-5.82v2.54c0,.24-.78.99-.78,3.53v8.39Z"/>
      <path class="cls-1" d="M47.57,57.85c0,.3-.38.27-.41-.2-.08-1.27-.76-2.61-2.15-2.61-.72,0-1.29.61-1.29,1.35s.57,1.35,1.28,1.35c.31,0,.3.14.15.31-1.15,1.26-4.78.17-4.78-3.2,0-2.07,1.67-3.75,3.64-3.75s3.56,1.68,3.56,3.75c0,.42,0,2.09,0,2.99Z"/>
      <path class="cls-4" d="M44.01,51.35c-1.84,0-3.41,1.57-3.41,3.51,0,2.95,2.89,3.92,4.1,3.26.3-.17.41-.24-.28-.24-1.28,0-2.57-1.09-2.46-2.66.1-1.34,1.19-2.1,2.27-2.1,1.15,0,2.33.7,2.75,2.14.14.48.21.19.21-.4,0-1.42-.64-2.27-1.01-2.66-.48-.49-1.23-.85-2.16-.85Z"/>
      <path class="cls-2" d="M47.42,59.56c-.18-.04-.23.14-.27.32-.28,1.46-1.31,1.7-1.9,1.47-.63-.24-.83-1.21-.16-1.64.2-.44-1.52-.42-2.1,1.05-.42,1.06-.14,2.14.46,2.79.75.8,2.14,1.13,3.29.34,1.02-.71,1.32-1.92,1.32-2.85,0-1.31,0-1.34-.65-1.48Z"/>
      <path class="cls-4" d="M44.3,59.7c-.76.25-1.53,1.24-1.2,2.69.31,1.39,1.88,2.04,3.11,1.52,1.17-.5,1.43-1.8,1.37-2.62-.03-.54-.21-.34-.24-.24-.2.65-.61,1.23-1.21,1.48-.46.2-.99.25-1.53-.03-1.09-.56-.84-2.39.12-2.77.21-.08-.04-.16-.43-.03Z"/>
      <path class="cls-1" d="M51.49,57.85c0,.3.38.27.41-.2.08-1.27.76-2.61,2.15-2.61.72,0,1.29.61,1.29,1.35s-.57,1.35-1.28,1.35c-.31,0-.3.14-.15.31,1.15,1.26,4.78.17,4.78-3.2,0-2.07-1.67-3.75-3.64-3.75s-3.56,1.68-3.56,3.75c0,.42,0,2.09,0,2.99Z"/>
      <path class="cls-4" d="M55.05,51.35c1.84,0,3.41,1.57,3.41,3.51,0,2.95-2.89,3.92-4.1,3.26-.3-.17-.41-.24.28-.24,1.28,0,2.57-1.09,2.46-2.66-.1-1.34-1.19-2.1-2.27-2.1-1.15,0-2.33.7-2.75,2.14-.14.48-.21.19-.21-.4,0-1.42.64-2.27,1.01-2.66.48-.49,1.23-.85,2.16-.85Z"/>
      <path class="cls-2" d="M51.64,59.56c.18-.04.23.14.27.32.28,1.46,1.31,1.7,1.9,1.47.63-.24.83-1.21.16-1.64-.2-.44,1.52-.42,2.1,1.05.42,1.06.14,2.14-.46,2.79-.75.8-2.14,1.13-3.29.34-1.02-.71-1.32-1.92-1.32-2.85,0-1.31,0-1.34.65-1.48Z"/>
      <path class="cls-4" d="M54.75,59.7c.76.25,1.53,1.24,1.2,2.69-.31,1.39-1.88,2.04-3.11,1.52-1.17-.5-1.43-1.8-1.37-2.62.03-.54.21-.34.24-.24.2.65.61,1.23,1.21,1.48.46.2.99.25,1.53-.03,1.09-.56.84-2.39-.12-2.77-.21-.08.04-.16.43-.03Z"/>
      <path class="cls-5" d="M55.12,52.68c-1.2,0-2.43.72-2.89,2.19.5-1.18,1.57-1.76,2.6-1.76s2.17.76,2.27,2.1c.08,1.11-.54,1.97-1.36,2.39,1.04-.36,1.89-1.36,1.79-2.69-.1-1.43-1.27-2.23-2.41-2.23Z"/>
      <path class="cls-5" d="M43.94,52.68c1.2,0,2.43.72,2.89,2.19-.5-1.18-1.57-1.76-2.6-1.76s-2.17.76-2.27,2.1c-.08,1.11.54,1.97,1.36,2.39-1.04-.36-1.89-1.36-1.79-2.69.1-1.43,1.27-2.23,2.41-2.23Z"/>
      <path class="cls-5" d="M54.74,60.03c.3.7.18,1.67-.56,2.05-.53.28-1.07.23-1.53.03-.3-.13-.55-.34-.76-.6.23.45.57.82,1.02,1.01.46.2.99.25,1.53-.03.91-.46.88-1.8.3-2.46Z"/>
      <path class="cls-5" d="M44.32,60.03c-.3.7-.18,1.67.56,2.05.53.28,1.07.23,1.53.03.3-.13.55-.34.76-.6-.23.45-.57.82-1.02,1.01-.46.2-.99.25-1.53-.03-.91-.46-.88-1.8-.3-2.46Z"/>
    </g>
  </g>
</svg>